<?xml version="1.0" encoding="UTF-8"?>
<svg width="25px" height="20px" viewBox="0 0 25 20" version="1.1" xmlns="http://www.w3.org/2000/svg" xmlns:xlink="http://www.w3.org/1999/xlink">
    <!-- Generator: Sketch 52.6 (67491) - http://www.bohemiancoding.com/sketch -->
    <title>Combined Shape</title>
    <desc>Created with Sketch.</desc>
    <g id="UI" stroke="none" stroke-width="1" fill="none" fill-rule="evenodd">
        <g id="Results" transform="translate(-1332.000000, -199.000000)" fill="#3D8BDF" fill-rule="nonzero">
            <path d="M1353.59146,209.999997 L1333.5,209.999997 C1332.94772,209.999997 1332.5,209.552282 1332.5,208.999997 C1332.5,208.447712 1332.94772,207.999997 1333.5,207.999997 L1353.77969,207.999997 L1347.2718,201.085365 C1346.89329,200.683191 1346.91246,200.050316 1347.31464,199.6718 C1347.71681,199.293283 1348.34969,199.312461 1348.7282,199.714635 L1356.7282,208.214635 C1357.0906,208.599685 1357.0906,209.200315 1356.7282,209.585365 L1348.7282,218.085365 C1348.34969,218.487538 1347.71681,218.506716 1347.31464,218.1282 C1346.91246,217.749683 1346.89329,217.116809 1347.2718,216.714635 L1353.59146,209.999997 Z" id="Combined-Shape"></path>
        </g>
    </g>
</svg>