<?xml version="1.0" encoding="UTF-8"?>
<svg width="238px" height="152px" viewBox="0 0 238 152" version="1.1" xmlns="http://www.w3.org/2000/svg" xmlns:xlink="http://www.w3.org/1999/xlink">
    <!-- Generator: Sketch 52.6 (67491) - http://www.bohemiancoding.com/sketch -->
    <title>Group 13</title>
    <desc>Created with Sketch.</desc>
    <g id="Style-Guide" stroke="none" stroke-width="1" fill="none" fill-rule="evenodd">
        <g id="Group-13">
            <path d="M156.202594,81.4464168 L176.035997,81.4464168 L176.035997,146.60355 L199.835859,146.60355 L199.835859,100.450439 L217.024678,100.450439 C222.136303,100.450439 226.280303,96.1963452 226.280303,90.9482859 L226.280303,43.438089 C226.280303,38.1903136 222.13658,33.935936 217.024678,33.935936 C211.912777,33.935936 207.76933,38.1903136 207.76933,43.438089 L207.76933,81.4464168 L199.835859,81.4464168 L199.835859,12.2168915 C199.835859,5.47064403 194.507147,0 187.935928,0 C181.364708,0 176.035997,5.47064403 176.035997,12.2168915 L176.035997,62.4421109 L165.458219,62.4421109 L165.458219,27.1488056 C165.458219,21.9010302 161.314496,17.6466527 156.202594,17.6466527 C151.090693,17.6466527 146.94697,21.9010302 146.94697,27.1488056 L146.94697,71.9442639 C146.94697,77.1923232 151.090693,81.4464168 156.202594,81.4464168 Z" id="Path" fill="#EFE1D6"></path>
            <path d="M237.992793,151.67226 L-2.84217094e-13,151.67226 C16.2480101,142.680291 40.7431549,139.53289 73.4854344,142.230058 C122.598854,146.27581 158.570088,138.468497 180.876269,128.431325 C195.747057,121.739877 214.785898,119.293561 237.992793,121.092378 L237.992793,151.67226 Z" id="Path-10" fill="#FFEDDF"></path>
            <path d="M132.055539,125.554349 C134.51248,125.315197 137.607537,124.464877 140.427479,122.096131 C145.108275,118.159607 147.286279,111.470934 146.904173,102.216119 C146.816288,99.968846 144.917222,98.2188583 142.639871,98.31376 C140.373984,98.4048656 138.616297,100.299104 138.708002,102.550173 C138.975476,109.018674 137.76038,113.611917 135.192628,115.825025 C134.183869,116.694325 133.056657,117.119484 132.055539,117.31688 C131.765139,101.840308 130.049483,86.0828266 130.049483,86.0828266 C128.696829,82.2525932 125.017149,80.9467456 123.125725,80.9467456 L121.704292,80.9467456 C119.816689,80.9467456 114.971586,83.1218929 114.780533,86.0828266 C114.780533,86.0828266 113.213899,105.40102 112.82033,117.237163 C111.922382,117.016991 110.955654,116.607015 110.080631,115.87817 C107.470848,113.680246 106.232825,109.071819 106.5003,102.550173 C106.595826,100.295308 104.834318,98.4010696 102.56843,98.3099639 C100.298722,98.2150622 98.3996554,99.9650499 98.30795,102.212323 C97.9258441,111.467138 100.103848,118.155811 104.780823,122.092335 C107.474669,124.358588 110.416885,125.227887 112.812688,125.508796 C113.187152,134.653526 114.784355,143.126351 114.784355,143.126351 C114.784355,143.680577 114.933376,144.200639 115.170281,144.659963 C108.05547,145.282518 103.623042,146.60355 103.623042,146.60355 L141.596722,146.60355 C137.420305,145.586204 133.415836,144.990221 129.663557,144.667555 C129.904283,144.200639 130.053305,143.676781 130.053305,143.126351 C130.045662,143.126351 131.765139,139.094926 132.055539,125.554349 Z" id="Path" fill="#EFE1D6"></path>
        </g>
    </g>
</svg>