<?xml version="1.0" encoding="UTF-8"?>
<svg width="506px" height="246px" viewBox="0 0 506 246" version="1.1" xmlns="http://www.w3.org/2000/svg" xmlns:xlink="http://www.w3.org/1999/xlink">
    <!-- Generator: Sketch 52.6 (67491) - http://www.bohemiancoding.com/sketch -->
    <title>Group 21</title>
    <desc>Created with Sketch.</desc>
    <g id="UI" stroke="none" stroke-width="1" fill="none" fill-rule="evenodd">
        <g id="Getting_Started" transform="translate(-934.000000, -97.000000)">
            <g id="Group-21" transform="translate(934.000000, 97.000000)">
                <path d="M76.850081,170 L100.100162,170 L100.100162,246 L128,246 L128,192.166501 L148.149919,192.166501 C154.142118,192.166501 159,187.204479 159,181.083085 L159,125.666667 C159,119.545603 154.142442,114.583251 148.149919,114.583251 C142.157396,114.583251 137.300162,119.545603 137.300162,125.666667 L137.300162,170 L128,170 L128,89.2499172 C128,81.3810196 121.753318,75 114.050081,75 C106.346844,75 100.100162,81.3810196 100.100162,89.2499172 L100.100162,147.833168 L87.7001621,147.833168 L87.7001621,106.666667 C87.7001621,100.545603 82.8426039,95.5832505 76.850081,95.5832505 C70.8575582,95.5832505 66,100.545603 66,106.666667 L66,158.916584 C66,165.037978 70.8575582,170 76.850081,170 Z" id="Path" fill="#EFE1D6" transform="translate(112.500000, 160.500000) scale(-1, 1) translate(-112.500000, -160.500000) "></path>
                <path d="M-5.68434189e-14,245.673727 L507.049613,245.673727 L506.049613,183.673727 C465.17631,175.503512 420.632138,180.960959 372.417097,200.046066 C300.094535,228.673727 177.016219,232.342169 123.009613,229.673727 C87.0052093,227.894765 46.0020049,233.228098 -5.68434189e-14,245.673727 Z" id="Path-9" fill="#FFEDDF"></path>
                <path d="M388.833429,113.333333 L416.333525,113.333333 L416.333525,204 L449.333333,204 L449.333333,139.77758 L473.166571,139.77758 C480.254118,139.77758 486,133.857975 486,126.555259 L486,60.4444444 C486,53.1421235 480.254501,47.2221235 473.166571,47.2221235 C466.078641,47.2221235 460.333525,53.1421235 460.333525,60.4444444 L460.333525,113.333333 L449.333333,113.333333 L449.333333,16.9999012 C449.333333,7.61244444 441.944784,0 432.833429,0 C423.722074,0 416.333525,7.61244444 416.333525,16.9999012 L416.333525,86.8886914 L401.666858,86.8886914 L401.666858,37.7777778 C401.666858,30.4754568 395.921359,24.5554568 388.833429,24.5554568 C381.745499,24.5554568 376,30.4754568 376,37.7777778 L376,100.111012 C376,107.413728 381.745499,113.333333 388.833429,113.333333 Z" id="Path" fill="#EFE1D6"></path>
                <path d="M167.928919,221.12315 C170.25051,220.897317 173.175065,220.094357 175.839659,217.857539 C180.262597,214.140264 182.320617,207.824121 181.959561,199.084759 C181.876518,196.96265 180.082069,195.31013 177.930174,195.399746 C175.789111,195.485777 174.128253,197.274514 174.214907,199.400208 C174.467646,205.508441 173.319487,209.84586 170.89319,211.935708 C169.940002,212.756591 168.874886,213.158071 167.928919,213.344473 C167.654516,198.72988 166.033374,183.850023 166.033374,183.850023 C164.755236,180.233117 161.278265,179 159.491037,179 L158.147908,179 C156.364291,179 151.786099,181.054001 151.605571,183.850023 C151.605571,183.850023 150.125241,202.092276 149.753353,213.269195 C148.904871,213.061286 147.991399,212.674144 147.16458,211.985893 C144.698567,209.910384 143.528745,205.558626 143.781484,199.400208 C143.871748,197.27093 142.20728,195.482192 140.066217,195.396161 C137.921543,195.306545 136.127094,196.959066 136.040441,199.081175 C135.679385,207.820537 137.737405,214.136679 142.156732,217.853955 C144.702178,219.993987 147.48231,220.81487 149.746132,221.080134 C150.099967,229.715541 151.609182,237.716466 151.609182,237.716466 C151.609182,238.239824 151.749993,238.73092 151.973848,239.164662 C145.250983,239.752544 141.062732,241 141.062732,241 L176.944491,241 C172.998147,240.039315 169.214279,239.476526 165.668708,239.171832 C165.896173,238.73092 166.036985,238.23624 166.036985,237.716466 C166.029764,237.716466 167.654516,233.909574 167.928919,221.12315 Z" id="Path" fill="#EFE1D6"></path>
                <path d="M489.481775,214.596612 C492.207121,214.330712 495.640293,213.385291 498.768296,210.751619 C503.96044,206.374827 506.376376,198.938078 505.952528,188.648185 C505.855043,186.149572 503.748516,184.203862 501.222378,184.309378 C498.708957,184.410673 496.759254,186.516767 496.860977,189.0196 C497.157671,196.211552 495.809833,201.318513 492.961571,203.77914 C491.842611,204.745664 490.592258,205.218374 489.481775,205.437847 C489.15965,188.230342 487.25657,170.710511 487.25657,170.710511 C485.756146,166.451896 481.674485,165 479.576435,165 L477.999718,165 C475.905907,165 470.531508,167.41842 470.319583,170.710511 C470.319583,170.710511 468.581804,192.189292 468.14524,205.349214 C467.149196,205.104417 466.07686,204.648589 465.106247,203.838228 C462.211361,201.394484 460.838092,196.270641 461.134786,189.0196 C461.240748,186.512546 459.286807,184.406452 456.773385,184.305157 C454.255725,184.199642 452.149198,186.145352 452.047474,188.643964 C451.623625,198.933858 454.039562,206.370606 459.227468,210.747398 C462.2156,213.267114 465.479233,214.233638 468.136763,214.545964 C468.552135,224.71346 470.323822,234.133904 470.323822,234.133904 C470.323822,234.750116 470.489123,235.328342 470.751909,235.839038 C462.85985,236.531221 457.943207,238 457.943207,238 L500.065272,238 C495.432608,236.868871 490.990675,236.206233 486.828483,235.847479 C487.095507,235.328342 487.260808,234.745895 487.260808,234.133904 C487.252331,234.133904 489.15965,229.651596 489.481775,214.596612 Z" id="Path" fill="#EFE1D6"></path>
            </g>
        </g>
    </g>
</svg>