<?xml version="1.0" encoding="UTF-8" standalone="no"?>
<svg
   xmlns="http://www.w3.org/2000/svg"
   viewBox="0 0 24 24"
   >
  <g id="layer1" transform="translate(0,-273)">
    <path
       style="stroke-width:0.26458332"
       d="m 10.039135,276.35326 a 6.8821902,6.8821902 0 0 0 -6.8822669,6.88226 6.8821902,6.8821902 0 0 0 6.8822669,6.88227 6.8821902,6.8821902 0 0 0 6.882267,-6.88227 6.8821902,6.8821902 0 0 0 -6.882267,-6.88226 z m 0,2.32234 a 4.560286,4.560286 0 0 1 4.560445,4.55992 4.560286,4.560286 0 0 1 -4.560445,4.56045 4.560286,4.560286 0 0 1 -4.559928,-4.56045 4.560286,4.560286 0 0 1 4.559928,-4.55992 z"
       id="path10" />
    <rect
       id="rect3744"
       width="2.7395129"
       height="8.0180855"
       x="-194.56053"
       y="213.13597"
       style="stroke-width:0.21381561"
       transform="rotate(-45)" />
  </g>
</svg>
