<?xml version="1.0" encoding="UTF-8"?>
<svg width="58px" height="52px" viewBox="0 0 58 52" version="1.1" xmlns="http://www.w3.org/2000/svg" xmlns:xlink="http://www.w3.org/1999/xlink">
    <!-- Generator: Sketch 52.6 (67491) - http://www.bohemiancoding.com/sketch -->
    <title>hotreload</title>
    <desc>Created with Sketch.</desc>
    <g id="UI" stroke="none" stroke-width="1" fill="none" fill-rule="evenodd">
        <g id="Product_Landing_UI" transform="translate(-231.000000, -1163.000000)" fill="#3A495B">
            <g id="CARD-Copy-4" transform="translate(120.000000, 1118.000000)">
                <g id="hotreload" transform="translate(111.000000, 45.000000)">
                    <path d="M55,9 L55,6 C55,4.34314575 53.6568542,3 52,3 L6,3 C4.34314575,3 3,4.34314575 3,6 L3,9 L55,9 Z M55,12 L3,12 L3,46 C3,47.6568542 4.34314575,49 6,49 L52,49 C53.6568542,49 55,47.6568542 55,46 L55,12 Z M5,0 L53,0 C55.7614237,-5.07265313e-16 58,2.23857625 58,5 L58,47 C58,49.7614237 55.7614237,52 53,52 L5,52 C2.23857625,52 3.38176876e-16,49.7614237 0,47 L0,5 C-3.38176876e-16,2.23857625 2.23857625,5.07265313e-16 5,0 Z M6,7 C5.44771525,7 5,6.55228475 5,6 C5,5.44771525 5.44771525,5 6,5 C6.55228475,5 7,5.44771525 7,6 C7,6.55228475 6.55228475,7 6,7 Z M10,7 C9.44771525,7 9,6.55228475 9,6 C9,5.44771525 9.44771525,5 10,5 C10.5522847,5 11,5.44771525 11,6 C11,6.55228475 10.5522847,7 10,7 Z" id="Combined-Shape"></path>
                    <path d="M22.9849574,36.2186288 C22.0064584,35.3374929 21.3005761,34.2811034 20.8381014,33.1468235 C19.6113266,30.1383043 20.1857688,26.560211 22.5809006,24.0920568 L24.7910426,26.3021988 C24.9127465,26.4239026 25.1318134,26.3362759 25.1610223,26.1561542 L26.3683245,18.25514 C26.3877972,18.1236998 26.2758296,18.0117323 26.1443895,18.0312049 L18.2385071,19.2385071 C18.0583854,19.267716 17.9707586,19.486783 18.0924625,19.6084868 L20.3074726,21.823497 C16.6514888,25.5622394 16.0283651,31.1703529 18.4283651,35.5516917 C19.1488519,36.8709615 20.1468235,38.0782637 21.4174118,39.0908398 C23.5788722,40.8092982 26.2368844,41.6320162 28.8754239,41.5784665 L29.3719757,38.3314077 C27.0985477,38.5261339 24.7618337,37.8251197 22.9849574,36.2186288 Z" id="Shape" fill-rule="nonzero"></path>
                    <path d="M37.686783,38.1707586 C41.3427667,34.4320162 41.9658905,28.8239026 39.5658905,24.4425639 C38.8454037,23.1232941 37.847432,21.9159919 36.5768438,20.9034158 C34.4153834,19.1849574 31.7573712,18.3622394 29.1188316,18.415789 L28.6222799,21.6628479 C30.8908398,21.4681217 33.2324219,22.1691359 35.0092982,23.7756268 C35.9877972,24.6567627 36.6936795,25.7131521 37.1561542,26.847432 C38.382929,29.8559513 37.8084868,33.4340446 35.413355,35.9021988 L33.203213,33.6920568 C33.0815091,33.5703529 32.8624422,33.6579797 32.8332333,33.8381014 L31.625931,41.7391156 C31.6064584,41.8705558 31.718426,41.9825233 31.8498661,41.9630507 L39.7557485,40.7557485 C39.9358702,40.7265396 40.0186288,40.5074726 39.9017931,40.3857688 L37.686783,38.1707586 Z" id="Shape" fill-rule="nonzero"></path>
                </g>
            </g>
        </g>
    </g>
</svg> 