<?xml version="1.0" encoding="UTF-8"?>
<svg width="60px" height="60px" viewBox="0 0 60 60" version="1.1" xmlns="http://www.w3.org/2000/svg" xmlns:xlink="http://www.w3.org/1999/xlink">
    <!-- Generator: sketchtool 51.2 (57519) - http://www.bohemiancoding.com/sketch -->
    <title>2A10B174-0363-4293-9E06-547DDFE6A8F8</title>
    <desc>Created with sketchtool.</desc>
    <defs></defs>
    <g id="UI" stroke="none" stroke-width="1" fill="none" fill-rule="evenodd">
        <g id="Product_Landing_UI" transform="translate(-843.000000, -1160.000000)" fill="#3A495B" fill-rule="nonzero">
            <g id="CARD-Copy-6" transform="translate(734.000000, 1118.000000)">
                <g id="models" transform="translate(109.000000, 42.000000)">
                    <path d="M31.2500391,35.0000391 L51.2500781,35.0000391 C51.9400781,35.0000391 52.5001172,34.44 52.5001172,33.75 C52.5001172,33.06 51.9400781,32.4999609 51.2500781,32.4999609 L31.2500391,32.4999609 C30.5600391,32.4999609 30,33.06 30,33.75 C30,34.44 30.5600391,35.0000391 31.2500391,35.0000391 Z" id="Shape"></path>
                    <path d="M60,23.7500391 L60,18.75 C60,17.5425 59.64,16.425 59.0450391,15.4674609 C59.0300391,15.4374609 59.0275781,15.4024219 59.01,15.375 L51.2799609,2.94996094 C50.1324609,1.10496094 48.1475391,0 45.9725391,0 L14.0300391,0 C11.8525781,0 9.87,1.10496094 8.7225,2.94996094 L0.992460937,15.375 C0.977460937,15.3999609 0.977460937,15.4275 0.962460937,15.4550391 C0.362460937,16.4124609 0,17.5374609 0,18.75 L0,23.7500391 C0,25.8 1.00746094,27.6100781 2.54003906,28.7500781 C1.00746094,29.8899609 0,31.6974609 0,33.75 L0,38.7500391 C0,40.8 1.00746094,42.6100781 2.54003906,43.7500781 C1.00746094,44.8899609 0,46.6974609 0,48.75 L0,53.7500391 C0,57.195 2.805,60 6.24996094,60 L22.6399219,60 C23.3323828,60 23.8899609,59.4399609 23.8899609,58.7499609 C23.8899609,58.0599609 23.3299219,57.4999219 22.6399219,57.4999219 L6.24996094,57.4999219 C4.18242187,57.4999219 2.49996094,55.8174609 2.49996094,53.7499219 L2.49996094,48.75 C2.49996094,46.68 4.18242187,45 6.24996094,45 L27.1599609,45 C27.8499609,45 28.41,44.4399609 28.41,43.7499609 C28.41,43.0599609 27.8499609,42.4999219 27.1599609,42.4999219 L6.24996094,42.4999219 C4.18242187,42.4999219 2.49996094,40.8174609 2.49996094,38.7499219 L2.49996094,33.75 C2.49996094,31.68 4.18242187,30 6.24996094,30 L53.7499219,30 C55.8174609,30 57.4999219,31.6824609 57.4999219,33.75 L57.4999219,38.7500391 C57.4999219,39.3 57.3649219,39.8525391 57.1048828,40.3850391 C56.8024219,41.0050781 57.0574219,41.7525 57.6773438,42.0575391 C58.2998438,42.3625781 59.0473828,42.1075781 59.3498438,41.4850781 C59.7823828,40.6051172 59.9998828,39.6875391 59.9998828,38.7500391 L59.9998828,33.75 C59.9998828,31.7000391 58.9924219,29.8899609 57.4598438,28.7499609 C58.9925391,27.6075 60,25.8 60,23.7500391 Z M10.845,4.26996094 C11.5325391,3.16242187 12.7224609,2.49996094 14.0274609,2.49996094 L45.9699609,2.49996094 C47.2749609,2.49996094 48.465,3.16242187 49.155,4.26996094 L54.3125391,12.5574609 C54.1250391,12.5374219 53.9425781,12.4999219 53.7500391,12.4999219 L6.24996094,12.4999219 C6.05742187,12.4999219 5.87496094,12.5374219 5.68746094,12.5548828 L10.845,4.26996094 Z M57.5000391,23.7500391 C57.5000391,25.8175781 55.8175781,27.5000391 53.7500391,27.5000391 L6.24996094,27.5000391 C4.18242187,27.5000391 2.49996094,25.8175781 2.49996094,23.7500391 L2.49996094,18.75 C2.49996094,16.68 4.18242187,15 6.24996094,15 L53.7499219,15 C55.8174609,15 57.4999219,16.68 57.4999219,18.75 L57.4999219,23.7500391 L57.5000391,23.7500391 Z" id="Shape"></path>
                    <path d="M5.00003906,51.2499609 C5.00003906,53.3175 6.6825,54.9999609 8.75003906,54.9999609 C10.8175781,54.9999609 12.5000391,53.3175 12.5000391,51.2499609 C12.5000391,49.1824219 10.8175781,47.4999609 8.75003906,47.4999609 C6.6825,47.4999609 5.00003906,49.1799609 5.00003906,51.2499609 Z M9.99996094,51.2499609 C9.99996094,51.9399609 9.43992187,52.5 8.74992188,52.5 C8.05992187,52.5 7.5,51.9399609 7.5,51.2499609 C7.5,50.5599609 8.06003906,49.9999219 8.75003906,49.9999219 C9.44003906,49.9999219 9.99996094,50.5599609 9.99996094,51.2499609 Z" id="Shape"></path>
                    <path d="M51.2499609,42.5000391 C51.0225,42.5000391 50.7949219,42.5125781 50.5725,42.5325 C48.4899609,39.4074609 44.9925,37.5 41.25,37.5 C35.43,37.5 30.6275391,41.9424609 30.0575391,47.6150391 C27.18,48.1700391 25.0000781,50.7100781 25.0000781,53.7500391 C25.0000781,57.195 27.8050781,60 31.2500391,60 L51.2500781,60 C56.0750391,60 60,56.0750391 60,51.2499609 C60,46.4248828 56.0750391,42.5000391 51.2499609,42.5000391 Z M51.2499609,57.5000391 L31.2500391,57.5000391 C29.1825,57.5000391 27.5000391,55.8175781 27.5000391,53.7500391 C27.5000391,51.6825 29.1825,50.0000391 31.2500391,50.0000391 C31.9400391,50.0000391 32.5000781,49.44 32.5000781,48.75 C32.5000781,43.9250391 36.4250391,39.9999609 41.2501172,39.9999609 C44.3751563,39.9999609 47.2876172,41.7225 48.8451563,44.4949219 C49.1051953,44.9574609 49.6201172,45.2023828 50.1551953,45.1123828 C50.5127344,45.0499219 50.8751953,44.9998828 51.2501953,44.9998828 C54.6951563,44.9998828 57.5001563,47.8048828 57.5001563,51.2498437 C57.5001563,54.6948047 54.6950391,57.5000391 51.2499609,57.5000391 Z" id="Shape"></path>
                    <path d="M51.2499609,17.4999609 L31.2500391,17.4999609 C30.5600391,17.4999609 30,18.06 30,18.75 C30,19.44 30.5600391,20.0000391 31.2500391,20.0000391 L51.2500781,20.0000391 C51.9400781,20.0000391 52.5001172,19.44 52.5001172,18.75 C52.5001172,18.06 51.9399609,17.4999609 51.2499609,17.4999609 Z" id="Shape"></path>
                    <path d="M51.2499609,22.5 L31.2500391,22.5 C30.5600391,22.5 30,23.0600391 30,23.7500391 C30,24.4400391 30.5600391,25.0000781 31.2500391,25.0000781 L51.2500781,25.0000781 C51.9400781,25.0000781 52.5001172,24.4400391 52.5001172,23.7500391 C52.5001172,23.0600391 51.9399609,22.5 51.2499609,22.5 Z" id="Shape"></path>
                    <path d="M8.75003906,17.4999609 C6.6825,17.4999609 5.00003906,19.1799609 5.00003906,21.2499609 C5.00003906,23.3199609 6.6825,24.9999609 8.75003906,24.9999609 C10.8175781,24.9999609 12.5000391,23.3175 12.5000391,21.2499609 C12.5000391,19.1825391 10.8174609,17.4999609 8.75003906,17.4999609 Z M8.75003906,22.5 C8.06003906,22.5 7.5,21.9399609 7.5,21.2499609 C7.5,20.5599609 8.06003906,19.9999219 8.75003906,19.9999219 C9.44003906,19.9999219 10.0000781,20.5599609 10.0000781,21.2499609 C10.0000781,21.9399609 9.44003906,22.5 8.75003906,22.5 Z" id="Shape"></path>
                    <path d="M5.00003906,36.2499609 C5.00003906,38.3175 6.6825,39.9999609 8.75003906,39.9999609 C10.8175781,39.9999609 12.5000391,38.3175 12.5000391,36.2499609 C12.5000391,34.1824219 10.8175781,32.4999609 8.75003906,32.4999609 C6.6825,32.4999609 5.00003906,34.1799609 5.00003906,36.2499609 Z M9.99996094,36.2499609 C9.99996094,36.9399609 9.43992187,37.5 8.74992188,37.5 C8.05992187,37.5 7.5,36.9399609 7.5,36.2499609 C7.5,35.5599609 8.06003906,34.9999219 8.75003906,34.9999219 C9.44003906,34.9999219 9.99996094,35.5599609 9.99996094,36.2499609 Z" id="Shape"></path>
                </g>
            </g>
        </g>
    </g>
</svg>