<?xml version="1.0" encoding="UTF-8"?>
<svg width="33px" height="33px" viewBox="0 0 33 33" version="1.1" xmlns="http://www.w3.org/2000/svg" xmlns:xlink="http://www.w3.org/1999/xlink">
    <desc>Created with sketchtool.</desc>
    <g id="UI" stroke="none" stroke-width="1" fill="none" fill-rule="evenodd">
        <g id="Product_Landing_UI" transform="translate(-1114.000000, -479.000000)">
            <g id="Group-16" transform="translate(1115.000000, 480.000000)">
                <g id="Group-13">
                    <circle id="Oval" stroke="rgba(255, 255, 255, 0.4)" stroke-width="1.5" cx="15.5" cy="15.5" r="15.5"></circle>
                    <circle transform="rotate(-90 15.5 15.5)" class="another-circle" id="Oval" stroke="transparent" stroke-width="1.5" cx="15.5" cy="15.5" r="15.5"></circle>
                    <path d="M17.446075,11.6745215 L19.0051776,18.9038545 C19.1216083,19.443727 18.778341,19.975766 18.2384685,20.0921967 C18.0995124,20.1221644 17.9557641,20.1221625 17.8168088,20.092191 L10.587953,18.5329855 C10.0480837,18.41654 9.70483076,17.8844918 9.82127619,17.3446224 C9.86181978,17.1566525 9.95569899,16.9843581 10.091666,16.8483821 L15.7614192,11.1782546 C16.1519306,10.7877174 16.7850956,10.7876965 17.1756328,11.1782079 C17.3116312,11.3141974 17.4055298,11.4865195 17.446075,11.6745215 Z" id="Rectangle-9" fill="#FFFFFF" transform="translate(14.413224, 15.500005) rotate(-45.000000) translate(-14.413224, -15.500005) "></path>
                </g>
            </g>
        </g>
    </g>
</svg>