<?xml version="1.0" encoding="UTF-8"?>
<svg width="60px" height="60px" viewBox="0 0 60 60" version="1.1" xmlns="http://www.w3.org/2000/svg" xmlns:xlink="http://www.w3.org/1999/xlink">
    <!-- Generator: sketchtool 51.2 (57519) - http://www.bohemiancoding.com/sketch -->
    <title>DD601A7D-97BB-4A51-B827-3F3F818C966D</title>
    <desc>Created with sketchtool.</desc>
    <defs></defs>
    <g id="UI" stroke="none" stroke-width="1" fill="none" fill-rule="evenodd">
        <g id="Product_Landing_UI" transform="translate(-1150.000000, -1155.000000)" fill="#3A495B" fill-rule="nonzero">
            <g id="CARD-Copy-7" transform="translate(1041.000000, 1118.000000)">
                <g id="task" transform="translate(109.000000, 37.000000)">
                    <path d="M47.5852734,12.4142578 C43.1230078,7.95199219 35.8621875,7.95222656 31.3998047,12.414375 C27.9377344,15.8766797 27.0595312,21.1544531 29.2144922,25.5476953 C29.4994922,26.1287109 30.2014453,26.3688281 30.7826953,26.0837109 C31.3637109,25.7987109 31.6037109,25.0965234 31.3187109,24.515625 C29.6050781,21.0221484 30.3036328,16.8250781 33.0570703,14.0716406 C36.6053906,10.5232031 42.3794531,10.5229688 45.9280078,14.0716406 C49.4765625,17.6201953 49.4765625,23.3940234 45.9280078,26.9425781 C43.1800781,29.690625 38.98875,30.3922266 35.4990234,28.6882031 C34.9169531,28.4042578 34.2157031,28.6455469 33.931875,29.2271484 C33.6480469,29.80875 33.8892187,30.5103516 34.4708203,30.7942969 C36.0689062,31.5745313 37.7835937,31.95375 39.4851562,31.95375 C42.4567969,31.95375 45.3882422,30.7969922 47.5852734,28.5998438 C52.0475391,24.1374609 52.0475391,16.8766406 47.5852734,12.4142578 Z" id="Shape"></path>
                    <path d="M33.0614062,26.9520703 C32.6075391,26.4904688 31.8622266,26.4875391 31.4008594,26.9411719 C30.939375,27.3949219 30.9330469,28.1369531 31.3867969,28.5983203 C31.6161328,28.8317578 31.9191797,28.9487109 32.2225781,28.9487109 C32.5190625,28.9487109 32.8157812,28.8369141 33.0439453,28.6125 L33.0507422,28.6058203 C33.5122266,28.1520703 33.5151562,27.4134375 33.0614062,26.9520703 Z" id="Shape"></path>
                    <path d="M59.4405469,24.3392578 L55.8421875,22.1320312 L55.8421875,18.8821875 L59.4405469,16.6749609 C59.9319141,16.3735547 60.1311328,15.7597266 59.9104687,15.2274609 L57.6621094,9.80273438 C57.4414453,9.27046875 56.8665234,8.97726562 56.3066016,9.11179687 L52.2015234,10.0955859 L49.9042969,7.79859375 L50.8880859,3.69351562 C51.0222656,3.13324219 50.7294141,2.5584375 50.1971484,2.33789062 L44.7725391,0.08953125 C44.2399219,-0.13125 43.6260937,0.06796875 43.3249219,0.559335937 L41.1175781,4.15757812 L37.8678516,4.15757812 L35.660625,0.559335937 C35.3589844,0.06796875 34.7452734,-0.13125 34.2130078,0.08953125 L28.7883984,2.33789062 C28.2561328,2.5584375 27.9631641,3.13324219 28.0974609,3.69351562 L29.08125,7.79859375 L26.7841406,10.0955859 L22.6790625,9.11179687 C22.1191406,8.97761719 21.5441016,9.27046875 21.3235547,9.80273438 L19.0751953,15.2273437 C18.8545312,15.7597266 19.0538672,16.3736719 19.5451172,16.6748437 L23.1434766,18.8820703 L23.1434766,22.1319141 L19.5451172,24.3391406 C19.05375,24.6405469 18.8545312,25.254375 19.0751953,25.7866406 L21.3235547,31.21125 C21.5442187,31.7435156 22.1190234,32.0367187 22.6790625,31.9021875 L26.7841406,30.9183984 L29.08125,33.2153906 L28.0974609,37.3204688 C27.9632812,37.8807422 28.2561328,38.4555469 28.7883984,38.6759766 L34.2130078,40.9243359 C34.7453906,41.145 35.3594531,40.9457813 35.660625,40.4545313 L37.8678516,36.8561719 L41.1175781,36.8561719 L43.3248047,40.4545313 C43.5435937,40.8111328 43.9267969,41.0138672 44.3241797,41.0138672 C44.4742969,41.0138672 44.6264062,40.9849219 44.7725391,40.9243359 L50.1971484,38.6759766 C50.7294141,38.4554297 51.0223828,37.880625 50.8880859,37.3204688 L49.9042969,33.2153906 L52.2014062,30.9183984 L56.3064844,31.9021875 C56.8665234,32.0364844 57.4414453,31.7435156 57.6619922,31.21125 L59.9103516,25.7866406 C60.1311328,25.254375 59.9317969,24.6404297 59.4405469,24.3392578 Z M55.8799219,29.3901563 L52.1094141,28.4866406 C51.7134375,28.3916016 51.2960156,28.509375 51.0077344,28.7975391 L47.7829688,32.0221875 C47.4948047,32.3104687 47.3770313,32.7276562 47.4720703,33.1239844 L48.3755859,36.894375 L44.7992578,38.3765625 L42.7722656,35.0719922 C42.5592187,34.7246484 42.1809375,34.5128906 41.7733594,34.5128906 L37.2117188,34.5128906 C36.8041406,34.5128906 36.4258594,34.7246484 36.2128125,35.0719922 L34.1858203,38.3765625 L30.6094922,36.894375 L31.5130078,33.1239844 C31.6080469,32.7276562 31.4902734,32.3103516 31.2021094,32.0221875 L27.9773437,28.7975391 C27.6891797,28.509375 27.271875,28.3917188 26.8756641,28.4866406 L23.1052734,29.3901563 L21.6232031,25.8138281 L24.9276562,23.7868359 C25.275,23.5737891 25.4867578,23.1955078 25.4867578,22.7879297 L25.4867578,18.2262891 C25.4867578,17.8187109 25.2751172,17.4404297 24.9276562,17.2273828 L21.6234375,15.2003906 L23.1055078,11.6240625 L26.8758984,12.5275781 C27.271875,12.6223828 27.6892969,12.5048437 27.9775781,12.2166797 L31.2023438,8.99203125 C31.4905078,8.70375 31.6082813,8.2865625 31.5132422,7.89023437 L30.6097266,4.11984375 L34.1860547,2.63765625 L36.2130469,5.94222656 C36.4260938,6.28957031 36.804375,6.50132812 37.2119531,6.50132812 L41.7735938,6.50132812 C42.1810547,6.50132812 42.5594531,6.2896875 42.7725,5.94222656 L44.7994922,2.63765625 L48.3758203,4.11984375 L47.4723047,7.89023437 C47.3772656,8.2865625 47.4950391,8.70386719 47.7832031,8.99203125 L51.0079688,12.2166797 C51.2961328,12.5048437 51.7134375,12.6223828 52.1096484,12.5275781 L55.8801563,11.6240625 L57.3622266,15.2003906 L54.0577734,17.2273828 C53.7104297,17.4404297 53.4986719,17.8187109 53.4986719,18.2262891 L53.4986719,22.7879297 C53.4986719,23.1955078 53.7103125,23.5737891 54.0577734,23.7868359 L57.3622266,25.8138281 L55.8799219,29.3901563 Z" id="Shape"></path>
                    <path d="M29.5850391,43.1599219 C29.5844531,42.5838281 29.1648047,42.0936328 28.5957422,42.0038672 L25.9144922,41.5809375 L25.2087891,39.8824219 L26.8008984,37.6841016 C27.1388672,37.2174609 27.0875391,36.5744531 26.6798438,36.1674609 L23.8081641,33.3007031 C23.4002344,32.8934766 22.756875,32.8433203 22.2909375,33.1824609 L20.0961328,34.7792578 L18.3950391,34.0767187 L17.9664844,31.3964062 C17.8755469,30.8276953 17.385,30.4095703 16.8092578,30.4095703 C16.8087891,30.4095703 16.8082031,30.4095703 16.8077344,30.4095703 L12.7501172,30.4148437 C12.1739062,30.4155469 11.6838281,30.8350781 11.5940625,31.4041406 L11.17125,34.0852734 L9.47261719,34.7909766 L7.27441406,33.1988672 C6.80777344,32.8610156 6.16488281,32.9123437 5.75777344,33.3200391 L2.89101563,36.1917187 C2.48378906,36.5995312 2.43363281,37.2430078 2.77277344,37.7089453 L4.36957031,39.90375 L3.66714844,41.6047266 L0.986835938,42.0333984 C0.41765625,42.1244531 -0.0008203125,42.6158203 6.24500663e-16,43.1921484 L0.0052734375,47.2497656 C0.0059765625,47.8258594 0.425507813,48.3160547 0.994570313,48.4058203 L3.67570313,48.82875 L4.38140625,50.5272656 L2.78929688,52.7255859 C2.45132813,53.1922266 2.50265625,53.8352344 2.91035156,54.2422266 L5.78203125,57.1089844 C6.18984375,57.5160937 6.83320312,57.56625 7.29925781,57.2272266 L9.4940625,55.6304297 L11.1951562,56.3328516 L11.6237109,59.0131641 C11.7146484,59.581875 12.2051953,60 12.7809375,60 C12.7814062,60 12.7819922,60 12.7824609,60 L16.8400781,59.9948438 C17.4162891,59.9941406 17.90625,59.5746094 17.9961328,59.0055469 L18.4190625,56.3244141 L20.1175781,55.6187109 L22.3160156,57.2108203 C22.7824219,57.5486719 23.4254297,57.4974609 23.8325391,57.0896484 L26.6992969,54.2179688 C27.1065234,53.8100391 27.1566797,53.1666797 26.8176562,52.7007422 L25.2208594,50.5058203 L25.9232812,48.8048438 L28.6034766,48.3761719 C29.1726562,48.2851172 29.5910156,47.7938672 29.5903125,47.2175391 L29.5850391,43.1599219 Z M24.9055078,46.5939844 C24.5029687,46.6584375 24.1630078,46.9272656 24.0073828,47.3039062 L22.8041016,50.2174219 C22.6485937,50.5941797 22.6998047,51.0246094 22.9395703,51.3541406 L24.3336328,53.2703906 L22.8805078,54.7259766 L20.9608594,53.3356641 C20.6308594,53.0966016 20.2004297,53.0462109 19.8239062,53.2025391 L16.9139063,54.4115625 C16.5376172,54.5680078 16.2694922,54.9086719 16.2059766,55.3112109 L15.8367187,57.6523828 L13.7798437,57.6550781 L13.4056641,55.3151953 C13.3412109,54.9127734 13.0723828,54.5726953 12.695625,54.4170703 L9.78210937,53.2139062 C9.63808594,53.1544922 9.48621094,53.1251953 9.33503906,53.1251953 C9.09105469,53.1251953 8.8490625,53.2013672 8.645625,53.3489062 L6.72960938,54.7429687 L5.27402344,53.2898437 L6.66410156,51.3703125 C6.90316406,51.0401953 6.95367188,50.6096484 6.79722656,50.2333594 L5.58820313,47.3232422 C5.431875,46.9469531 5.09121094,46.6788281 4.68855469,46.6153125 L2.3475,46.2460547 L2.34480469,44.1891797 L4.68480469,43.815 C5.08734375,43.7506641 5.42742188,43.4818359 5.58292969,43.1050781 L6.78609375,40.1915625 C6.94160156,39.8149219 6.89027344,39.3844922 6.65050781,39.0549609 L5.2565625,37.1388281 L6.7096875,35.6832422 L8.62910156,37.0735547 C8.95921875,37.3127344 9.38976563,37.363125 9.76617187,37.2066797 L12.6762891,35.9976562 C13.0525781,35.8413281 13.3207031,35.5006641 13.3842187,35.0980078 L13.7533594,32.7568359 L15.8102344,32.7542578 L16.1844141,35.0941406 C16.2488672,35.4966797 16.5176953,35.8367578 16.8943359,35.9922656 L19.8078516,37.1955469 C20.1847266,37.3510547 20.6149219,37.2997266 20.9445703,37.0600781 L22.8608203,35.6661328 L24.3164062,37.1192578 L22.9263281,39.0387891 C22.6872656,39.3689062 22.6367578,39.7994531 22.7932031,40.1757422 L24.0022266,43.0858594 C24.1585547,43.4621484 24.4992188,43.7302734 24.901875,43.7937891 L27.2430469,44.1630469 L27.245625,46.2199219 L24.9055078,46.5939844 Z" id="Shape"></path>
                    <path d="M20.098125,39.9017578 C18.4394531,38.2430859 16.1521875,37.4653125 13.8239063,37.7680078 C13.1820703,37.8514453 12.729375,38.439375 12.8128125,39.0812109 C12.8963672,39.7230469 13.4844141,40.1759766 14.1260156,40.0921875 C15.7273828,39.8839453 17.3003906,40.4186719 18.4407422,41.5591406 C19.4148047,42.5329688 19.9509375,43.8276563 19.9509375,45.2049609 C19.9509375,46.5822656 19.4145703,47.8769531 18.4407422,48.8508984 C17.4669141,49.8247266 16.1722266,50.3609766 14.7949219,50.3609766 C13.4176172,50.3609766 12.1230469,49.8246094 11.1491016,48.8507813 C9.98027344,47.6819531 9.45082031,46.0727344 9.69632812,44.4355078 C9.79230469,43.7954297 9.35121094,43.1987109 8.71113281,43.1028516 C8.07105469,43.0071094 7.47457031,43.4480859 7.37859375,44.0880469 C7.02703125,46.4333203 7.81710937,48.8333203 9.49195312,50.5081641 C10.9083984,51.9247266 12.7918359,52.7048438 14.7950391,52.7048438 C16.7982422,52.7048438 18.6815625,51.9247266 20.0980078,50.5082813 C21.5144531,49.0918359 22.2945703,47.2083984 22.2945703,45.2051953 C22.2945703,43.2019922 21.5146875,41.3182031 20.098125,39.9017578 Z" id="Shape"></path>
                    <path d="M11.1638672,39.8909766 C10.7073047,39.4323047 9.96539063,39.4306641 9.50660156,39.8872266 L9.49382813,39.9 C9.03527344,40.3565625 9.03363281,41.0985937 9.49019531,41.5571484 C9.71917969,41.7871875 10.02,41.9022656 10.3207031,41.9022656 C10.6197656,41.9022656 10.9189453,41.7884766 11.1475781,41.5608984 L11.1603516,41.548125 C11.6186719,41.0915625 11.6203125,40.3495312 11.1638672,39.8909766 Z" id="Shape"></path>
                </g>
            </g>
        </g>
    </g>
</svg>