<?xml version="1.0" encoding="UTF-8"?>
<svg width="60px" height="60px" viewBox="0 0 60 60" version="1.1" xmlns="http://www.w3.org/2000/svg" xmlns:xlink="http://www.w3.org/1999/xlink">
    <!-- Generator: sketchtool 51.2 (57519) - http://www.bohemiancoding.com/sketch -->
    <title>64D0174A-A1AB-44AF-8C5C-303A8ABA9A50</title>
    <desc>Created with sketchtool.</desc>
    <defs></defs>
    <g id="UI" stroke="none" stroke-width="1" fill="none" fill-rule="evenodd">
        <g id="Product_Landing_UI" transform="translate(-843.000000, -779.000000)" fill="#3A495B" fill-rule="nonzero">
            <g id="CARD-Copy-2" transform="translate(734.000000, 742.000000)">
                <g id="toolbox" transform="translate(109.000000, 37.000000)">
                    <path d="M58.6207031,31.6466016 L49.8855469,31.6466016 L49.8855469,24.9210937 C49.8855469,24.1592578 49.2678516,23.5417969 48.50625,23.5417969 L42.8695313,23.5417969 L46.1142187,17.9217188 L53.6196094,22.2549609 C53.8310156,22.3771875 54.0692578,22.4397656 54.3092578,22.4397656 C54.4286719,22.4397656 54.5487891,22.4241797 54.6662109,22.3927734 C55.0197656,22.2979687 55.3208203,22.0669922 55.50375,21.7501172 L57.9175781,17.5691016 C58.2144141,17.0548828 58.1490234,16.4082422 57.7548047,15.9641016 C52.2554297,9.76558594 46.2648047,3.44191406 38.83875,0.193242188 C38.1952734,-0.0882421875 37.4426953,0.158789063 37.0914844,0.76734375 L32.6087109,8.53171875 C32.2277344,9.19148437 32.4537891,10.035 33.1135547,10.4158594 L37.7525391,13.0941797 L29.6204297,27.1788281 L20.3751562,13.4733984 L20.1180469,11.5025391 C20.0902734,11.2900781 20.0135156,11.0872266 19.89375,10.9096875 L16.3972266,5.72625 C15.9711328,5.09460937 15.1137891,4.92820312 14.4825,5.3540625 L8.19421875,9.59542969 C7.8909375,9.80003906 7.68128906,10.1166797 7.61144531,10.4757422 C7.54160156,10.8348047 7.61742188,11.2069922 7.82191406,11.5102734 L11.3184375,16.6937109 C11.4379688,16.8710156 11.5972266,17.0179687 11.7834375,17.1232031 L13.5141797,18.1011328 L22.6512891,31.6464844 L17.3050781,31.6464844 L11.8607812,20.4568359 C11.5273828,19.771875 10.7017969,19.486875 10.0170703,19.8200391 C9.33210937,20.1534375 9.04699219,20.9787891 9.38027344,21.66375 L14.2373437,31.6464844 L10.7475,31.6464844 L8.57296875,26.7005859 C8.26617188,26.0032031 7.45195313,25.6865625 6.75515625,25.993125 C6.05777344,26.2996875 5.74089844,27.1135547 6.04757813,27.8109375 L7.73390625,31.6467187 L1.37929688,31.6467187 C0.617578125,31.6467187 0,32.2641797 0,33.0260156 L0,40.6122656 C0,41.3741016 0.617695312,41.9915625 1.37929688,41.9915625 L3.793125,41.9915625 L3.793125,58.5432422 C3.793125,59.3050781 4.41082031,59.9225391 5.17242187,59.9225391 L54.8275781,59.9225391 C55.5891797,59.9225391 56.206875,59.3050781 56.206875,58.5432422 L56.206875,41.9915625 L58.6207031,41.9915625 C59.3824219,41.9915625 60,41.3741016 60,40.6122656 L60,33.0260156 C60,32.2640625 59.3823047,31.6466016 58.6207031,31.6466016 Z M47.1269531,26.3003906 L47.1269531,31.6466016 L38.1903516,31.6466016 L41.2768359,26.3003906 L47.1269531,26.3003906 Z M35.6874609,8.71652344 L38.8494141,3.23988281 C44.9882812,6.26648437 50.206875,11.6516016 55.0306641,17.0525391 L53.8044141,19.1762109 L35.6874609,8.71652344 Z M30.9063281,30.4702734 C30.9069141,30.4693359 30.9071484,30.4683984 30.9077344,30.4673438 L40.1419922,14.4733594 L43.7253516,16.5421875 L35.0051953,31.6464844 L30.2269922,31.6464844 L30.9063281,30.4702734 Z M15.6193359,16.2890625 C15.4998047,16.111875 15.3405469,15.9648047 15.1543359,15.8595703 L13.4235938,14.8816406 L10.8803906,11.1111328 L14.8816406,8.41242187 L17.4248438,12.1824609 L17.6819531,14.1533203 C17.7097266,14.3657812 17.7864844,14.5686328 17.90625,14.7461719 L28.0860937,29.8366406 L27.0411328,31.6464844 L25.9790625,31.6464844 L15.6193359,16.2890625 Z M53.4482813,51.4396875 L47.7241406,51.4396875 C46.9625391,51.4396875 46.3448438,52.0571484 46.3448438,52.8189844 C46.3448438,53.5808203 46.9625391,54.1982812 47.7241406,54.1982812 L53.4482813,54.1982812 L53.4482813,57.1638281 L6.55171875,57.1638281 L6.55171875,54.1982812 L12.2758594,54.1982812 C13.0374609,54.1982812 13.6551562,53.5808203 13.6551562,52.8189844 C13.6551562,52.0571484 13.0374609,51.4396875 12.2758594,51.4396875 L6.55171875,51.4396875 L6.55171875,41.9914453 L22.41375,41.9914453 L22.41375,46.8189844 C22.41375,47.5808203 23.0314453,48.1982812 23.7930469,48.1982812 L36.2068359,48.1982812 C36.9684375,48.1982812 37.5861328,47.5808203 37.5861328,46.8189844 L37.5861328,41.9914453 L53.4482813,41.9914453 L53.4481641,51.4396875 L53.4482813,51.4396875 Z M25.1724609,45.4396875 L25.1724609,41.9914453 L34.8276563,41.9914453 L34.8276563,45.4396875 L25.1724609,45.4396875 Z M57.2414062,39.2328516 L2.75859375,39.2328516 L2.75859375,34.4053125 L57.2414062,34.4053125 L57.2414062,39.2328516 Z" id="Shape"></path>
                    <path d="M17.5402734,51.4396875 L17.4023438,51.4396875 C16.6407422,51.4396875 16.0230469,52.0571484 16.0230469,52.8189844 C16.0230469,53.5808203 16.6407422,54.1982812 17.4023438,54.1982812 L17.5402734,54.1982812 C18.301875,54.1982812 18.9195703,53.5808203 18.9195703,52.8189844 C18.9195703,52.0571484 18.301875,51.4396875 17.5402734,51.4396875 Z" id="Shape"></path>
                    <path d="M42.4597266,54.1982813 L42.5976562,54.1982813 C43.3592578,54.1982813 43.9769531,53.5808203 43.9769531,52.8189844 C43.9769531,52.0571484 43.3592578,51.4396875 42.5976562,51.4396875 L42.4597266,51.4396875 C41.698125,51.4396875 41.0804297,52.0571484 41.0804297,52.8189844 C41.0804297,53.5808203 41.698125,54.1982813 42.4597266,54.1982813 Z" id="Shape"></path>
                </g>
            </g>
        </g>
    </g>
</svg>