<?xml version="1.0" encoding="UTF-8"?>
<svg width="90px" height="118px" viewBox="0 0 90 118" version="1.1" xmlns="http://www.w3.org/2000/svg" xmlns:xlink="http://www.w3.org/1999/xlink">
    <!-- Generator: sketchtool 51.2 (57519) - http://www.bohemiancoding.com/sketch -->
    <title>F693D4B9-5578-4860-8165-CC4BBFFFB397</title>
    <desc>Created with sketchtool.</desc>
    <defs></defs>
    <g id="UI" stroke="none" stroke-width="1" fill="none" fill-rule="evenodd">
        <g id="Product_Landing_UI" transform="translate(-1137.000000, -1484.000000)" fill="#D2DCE6" fill-rule="nonzero">
            <g id="cactus" transform="translate(1182.000000, 1543.000000) scale(-1, 1) translate(-1182.000000, -1543.000000) translate(1137.000000, 1484.000000)">
                <path d="M79.6449721,12.0666298 C73.9649162,12.0666298 69.343743,16.6816851 69.343743,22.3542213 L69.343743,41.838783 C69.343743,47.6519149 65.0780447,52.4866511 59.5088547,53.3902298 L59.5088547,14.4896468 C59.5088547,6.50004255 53.0001955,0 45,0 C36.9998045,0 30.4911453,6.50004255 30.4911453,14.4896468 L30.4911453,70.1989532 C24.9219553,69.2953745 20.656257,64.4606383 20.656257,58.6475064 L20.656257,39.1629447 C20.656257,33.4904085 16.0350838,28.8753532 10.3550279,28.8753532 C4.67497207,28.8753532 0.0537988827,33.4901574 0.0537988827,39.1629447 L0.0537988827,58.6475064 C0.0537988827,75.8142468 13.542486,89.8944085 30.4908939,90.8730553 L30.4908939,114.234043 L24.8344693,114.234043 C23.7931844,114.234043 22.9489944,115.077115 22.9489944,116.117021 C22.9489944,117.156928 23.7931844,118 24.8344693,118 L65.1652793,118 C66.2065642,118 67.0507542,117.156928 67.0507542,116.117021 C67.0507542,115.077115 66.2065642,114.234043 65.1652793,114.234043 L59.5088547,114.234043 L59.5088547,74.0640809 C76.4572626,73.085434 89.9459497,59.0055234 89.9459497,41.8385319 L89.9459497,22.3539702 C89.9462011,16.681434 85.3250279,12.0666298 79.6449721,12.0666298 Z M86.1752514,41.838783 C86.1752514,57.5614043 73.367095,70.3526043 57.6236313,70.3526043 C56.5823464,70.3526043 55.7381564,71.1956766 55.7381564,72.235583 L55.7381564,114.234043 L34.262095,114.234043 L34.262095,89.0445574 C34.262095,88.0046511 33.417905,87.1615787 32.3766201,87.1615787 C16.6331564,87.1615787 3.825,74.3703787 3.825,58.6477574 L3.825,39.1631957 C3.825,35.5672085 6.75427374,32.6415617 10.3552793,32.6415617 C13.9560335,32.6415617 16.8855587,35.5672085 16.8855587,39.1631957 L16.8855587,58.6477574 C16.8855587,66.5407021 22.8361173,73.0673574 30.4913966,73.9998085 L30.4913966,77.2568596 C30.4913966,78.296766 31.3355866,79.1398383 32.3768715,79.1398383 C33.4181564,79.1398383 34.2623464,78.296766 34.2623464,77.2568596 L34.2623464,14.4896468 C34.262095,8.57659149 39.0791061,3.76595745 45,3.76595745 C50.9208939,3.76595745 55.737905,8.57659149 55.737905,14.4896468 L55.737905,60.447634 C55.737905,61.4875404 56.582095,62.3306128 57.6233799,62.3306128 C58.6646648,62.3306128 59.5088547,61.4875404 59.5088547,60.447634 L59.5088547,57.190583 C67.1641341,56.2581319 73.1146927,49.7312255 73.1146927,41.8385319 L73.1146927,22.3539702 C73.1146927,18.757983 76.0442179,15.8323362 79.6449721,15.8323362 C83.2457263,15.8323362 86.1752514,18.757983 86.1752514,22.3539702 L86.1752514,41.838783 Z" id="Shape"></path>
                <path d="M45,100.428796 C43.9587151,100.428796 43.1145251,101.271868 43.1145251,102.311774 L43.1145251,106.077732 C43.1145251,107.117638 43.9587151,107.960711 45,107.960711 C46.0412849,107.960711 46.8854749,107.117638 46.8854749,106.077732 L46.8854749,102.311774 C46.8854749,101.271868 46.0412849,100.428796 45,100.428796 Z" id="Shape"></path>
                <path d="M50.0814804,37.6628383 C49.0401955,37.6628383 48.1960056,38.5059106 48.1960056,39.545817 L48.1960056,43.3117745 C48.1960056,44.3516809 49.0401955,45.1947532 50.0814804,45.1947532 C51.1227654,45.1947532 51.9669553,44.3516809 51.9669553,43.3117745 L51.9669553,39.545817 C51.9669553,38.5059106 51.1227654,37.6628383 50.0814804,37.6628383 Z" id="Shape"></path>
                <path d="M39.9185196,25.1096468 C38.8772346,25.1096468 38.0330447,25.9527191 38.0330447,26.9926255 L38.0330447,30.758583 C38.0330447,31.7984894 38.8772346,32.6415617 39.9185196,32.6415617 C40.9598045,32.6415617 41.8039944,31.7984894 41.8039944,30.758583 L41.8039944,26.9926255 C41.8039944,25.9527191 40.9598045,25.1096468 39.9185196,25.1096468 Z" id="Shape"></path>
                <path d="M79.6449721,28.8756043 C78.6036872,28.8756043 77.7594972,29.7186766 77.7594972,30.758583 L77.7594972,34.5245404 C77.7594972,35.5644468 78.6036872,36.4075191 79.6449721,36.4075191 C80.686257,36.4075191 81.5304469,35.5644468 81.5304469,34.5245404 L81.5304469,30.758583 C81.5304469,29.7186766 80.686257,28.8756043 79.6449721,28.8756043 Z" id="Shape"></path>
                <path d="M10.3550279,51.4713489 C9.31374302,51.4713489 8.46955307,52.3144213 8.46955307,53.3543277 L8.46955307,57.1202851 C8.46955307,58.1601915 9.31374302,59.0032638 10.3550279,59.0032638 C11.3963128,59.0032638 12.2405028,58.1601915 12.2405028,57.1202851 L12.2405028,53.3543277 C12.2405028,52.3144213 11.3963128,51.4713489 10.3550279,51.4713489 Z" id="Shape"></path>
            </g>
        </g>
    </g>
</svg>