<?xml version="1.0" encoding="UTF-8"?>
<svg width="60px" height="60px" viewBox="0 0 60 60" version="1.1" xmlns="http://www.w3.org/2000/svg" xmlns:xlink="http://www.w3.org/1999/xlink">
    <!-- Generator: sketchtool 51.2 (57519) - http://www.bohemiancoding.com/sketch -->
    <title>F8F57C35-80A0-4447-BF97-F7C7EC7DAB9B</title>
    <desc>Created with sketchtool.</desc>
    <defs></defs>
    <g id="UI" stroke="none" stroke-width="1" fill="none" fill-rule="evenodd">
        <g id="Product_Landing_UI" transform="translate(-538.000000, -1170.000000)" fill="#3A495B" fill-rule="nonzero">
            <g id="CARD-Copy-5" transform="translate(427.000000, 1118.000000)">
                <g id="frontend" transform="translate(111.000000, 52.000000)">
                    <path d="M47.7035156,44.1808594 C47.4855469,43.9628906 47.1832031,43.8375 46.875,43.8375 C46.5667969,43.8375 46.2644531,43.9628906 46.0464844,44.1808594 C45.8285156,44.3988281 45.703125,44.7011719 45.703125,45.009375 C45.703125,45.3175781 45.8285156,45.6199219 46.0464844,45.8378906 C46.2644531,46.0570313 46.5667969,46.18125 46.875,46.18125 C47.1832031,46.18125 47.4855469,46.0570313 47.7035156,45.8378906 C47.9214844,45.6199219 48.046875,45.3175781 48.046875,45.009375 C48.046875,44.7011719 47.9214844,44.3989453 47.7035156,44.1808594 Z" id="Shape"></path>
                    <path d="M55.3125,0.0001171875 L4.6875,0.0001171875 C2.1028125,0.0001171875 0,2.10292969 0,4.68761719 L0,41.4942187 C0,44.0789062 2.1028125,46.1817187 4.6875,46.1817187 L23.0859375,46.1817187 L23.0859375,52.0641797 C19.6485937,52.3991016 16.9531641,55.3044141 16.9531641,58.828125 C16.9531641,59.4753516 17.4778125,60 18.1250391,60 L41.8750781,60 C42.5223047,60 43.0469531,59.4753516 43.0469531,58.828125 C43.0469531,55.2247266 40.2280078,52.2689062 36.6798047,52.04625 L36.6798047,46.1817187 L42.1485938,46.1817187 C42.7958203,46.1817187 43.3204688,45.6570703 43.3204688,45.0098437 C43.3204688,44.3626172 42.7958203,43.8379687 42.1485938,43.8379687 L4.6875,43.8379687 C3.39515625,43.8379687 2.34375,42.7865625 2.34375,41.4942187 L2.34375,4.68761719 C2.34375,3.39527344 3.39515625,2.34386719 4.6875,2.34386719 L55.3125,2.34386719 C56.6048438,2.34386719 57.65625,3.39527344 57.65625,4.68761719 L57.65625,41.4942187 C57.65625,42.7865625 56.6048438,43.8379687 55.3125,43.8379687 L50.9375391,43.8379687 C50.2903125,43.8379687 49.7656641,44.3626172 49.7656641,45.0098437 C49.7656641,45.6570703 50.2903125,46.1817187 50.9375391,46.1817187 L55.3125,46.1817187 C57.8971875,46.1817187 60,44.0789062 60,41.4942187 L60,4.68761719 C60,2.1028125 57.8971875,0.0001171875 55.3125,0.0001171875 Z M25.4296875,46.1817188 L34.3359375,46.1817188 L34.3359375,52.0313672 L25.4296875,52.0313672 L25.4296875,46.1817188 Z M36.2499609,54.3751172 C38.3000391,54.3751172 40.0310156,55.7675391 40.5467578,57.6563672 L19.4532422,57.6563672 C19.9688672,55.7675391 21.6998437,54.3751172 23.7499219,54.3751172 L36.2499609,54.3751172 Z" id="Shape"></path>
                    <path d="M30.7113281,40.4309766 C30.4933594,40.2130078 30.1910156,40.0876172 29.8828125,40.0876172 C29.5746094,40.0876172 29.2722656,40.2130078 29.0542969,40.4309766 C28.8363281,40.6489453 28.7109375,40.9512891 28.7109375,41.2594922 C28.7109375,41.5688672 28.8363281,41.8700391 29.0542969,42.0880078 C29.2722656,42.3071484 29.5746094,42.4313672 29.8828125,42.4313672 C30.1910156,42.4313672 30.4933594,42.3071484 30.7113281,42.0880078 C30.9292969,41.8700391 31.0546875,41.5688672 31.0546875,41.2594922 C31.0546875,40.9512891 30.9292969,40.6489453 30.7113281,40.4309766 Z" id="Shape"></path>
                    <path d="M17.1323438,21.4821094 L22.8740625,15.7405078 C23.3317969,15.2828906 23.3317969,14.5408594 22.8741797,14.0832422 C22.4165625,13.625625 21.6745313,13.625625 21.2167969,14.0832422 L14.6465625,20.6534766 C14.1889453,21.1110938 14.1889453,21.853125 14.6465625,22.3108594 L21.2167969,28.8810938 C21.4456641,29.1099609 21.7455469,29.2243359 22.0454297,29.2243359 C22.3453125,29.2243359 22.6453125,29.1099609 22.8740625,28.8810938 C23.3316797,28.4234766 23.3316797,27.6814453 22.8740625,27.2237109 L17.1323438,21.4821094 Z" id="Shape"></path>
                    <path d="M45.3533203,20.6534766 L38.7830859,14.0832422 C38.3254687,13.625625 37.5834375,13.625625 37.1257031,14.0832422 C36.6680859,14.5408594 36.6680859,15.2828906 37.1257031,15.740625 L42.8674219,21.4822266 L37.1257031,27.2238281 C36.6682031,27.6814453 36.6682031,28.4234766 37.1258203,28.8810938 C37.3546875,29.1099609 37.6545703,29.2243359 37.9544531,29.2243359 C38.2543359,29.2243359 38.5543359,29.1099609 38.7830859,28.8810938 L45.3533203,22.3108594 C45.8109375,21.853125 45.8109375,21.1112109 45.3533203,20.6534766 Z" id="Shape"></path>
                    <path d="M32.0574609,14.2417969 C31.4323828,14.0739844 30.7897266,14.4453516 30.6221484,15.0704297 L27.1137891,28.1639062 C26.9463281,28.7891016 27.3173438,29.4316406 27.9424219,29.5992187 C28.0440234,29.6264062 28.1460938,29.6394141 28.2465234,29.6394141 C28.7639063,29.6394141 29.2374609,29.2940625 29.3777344,28.7705859 L32.8860938,15.6771094 C33.0536719,15.0517969 32.6826563,14.409375 32.0574609,14.2417969 Z" id="Shape"></path>
                    <path d="M54.140625,4.69734375 L35.5078125,4.69734375 C34.8605859,4.69734375 34.3359375,5.22199219 34.3359375,5.86921875 C34.3359375,6.51644531 34.8605859,7.04109375 35.5078125,7.04109375 L52.96875,7.04109375 L52.96875,36.3379688 L7.03125,36.3379688 L7.03125,7.04109375 L25.0195312,7.04109375 C25.6667578,7.04109375 26.1914062,6.51644531 26.1914062,5.86921875 C26.1914062,5.22199219 25.6667578,4.69734375 25.0195312,4.69734375 L5.859375,4.69734375 C5.21214844,4.69734375 4.6875,5.22199219 4.6875,5.86921875 L4.6875,37.5098438 C4.6875,38.1570703 5.21214844,38.6817188 5.859375,38.6817188 L54.140625,38.6817188 C54.7878516,38.6817188 55.3125,38.1570703 55.3125,37.5098438 L55.3125,5.86921875 C55.3125,5.22199219 54.7878516,4.69734375 54.140625,4.69734375 Z" id="Shape"></path>
                    <path d="M31.0628906,5.04035156 C30.8449219,4.82238281 30.5425781,4.69699219 30.234375,4.69699219 C29.9261719,4.69699219 29.6238281,4.82238281 29.4058594,5.04035156 C29.1878906,5.25832031 29.0625,5.56066406 29.0625,5.86886719 C29.0625,6.17707031 29.1878906,6.47941406 29.4058594,6.69855469 C29.6238281,6.91652344 29.9261719,7.04074219 30.234375,7.04074219 C30.5425781,7.04074219 30.8449219,6.91652344 31.0628906,6.69855469 C31.2808594,6.47941406 31.40625,6.17824219 31.40625,5.86886719 C31.40625,5.56066406 31.2808594,5.25832031 31.0628906,5.04035156 Z" id="Shape"></path>
                </g>
            </g>
        </g>
    </g>
</svg>