<?xml version="1.0" encoding="UTF-8"?>
<svg width="62px" height="62px" viewBox="0 0 62 62" version="1.1" xmlns="http://www.w3.org/2000/svg" xmlns:xlink="http://www.w3.org/1999/xlink">
    <!-- Generator: sketchtool 51.2 (57519) - http://www.bohemiancoding.com/sketch -->
    <title>339B9A4F-5753-46B1-84B3-A7169348F684</title>
    <desc>Created with sketchtool.</desc>
    <defs></defs>
    <g id="UI" stroke="none" stroke-width="1" fill="none" fill-rule="evenodd">
        <g id="Product_Landing_UI" transform="translate(-1038.000000, -2353.000000)" fill="#3D8BDF">
            <g id="Group-14" transform="translate(288.000000, 2305.000000)">
                <g id="Group-9" transform="translate(698.400028, 2.700000)">
                    <g id="oval" transform="translate(6.300000, 0.000000)">
                        <path d="M78.8906281,74.1093779 L104.850004,74.1093779 C106.092645,74.1093779 107.100004,75.1167373 107.100004,76.359378 L107.100004,76.640628 C107.100004,77.8832688 106.092645,78.8906281 104.850004,78.8906281 L78.8906281,78.8906281 L78.8906281,104.850004 C78.8906281,106.092645 77.8832688,107.100004 76.640628,107.100004 L76.359378,107.100004 C75.1167373,107.100004 74.1093779,106.092645 74.1093779,104.850004 L74.1093779,78.8906281 L48.1500019,78.8906281 C46.9073612,78.8906281 45.9000018,77.8832688 45.9000018,76.640628 L45.9000018,76.359378 C45.9000018,75.1167373 46.9073612,74.1093779 48.1500019,74.1093779 L74.1093779,74.1093779 L74.1093779,48.1500019 C74.1093779,46.9073612 75.1167373,45.9000018 76.359378,45.9000018 L76.640628,45.9000018 C77.8832688,45.9000018 78.8906281,46.9073612 78.8906281,48.1500019 L78.8906281,74.1093779 Z" id="plus"></path>
                    </g>
                </g>
            </g>
        </g>
    </g>
</svg>