<?xml version="1.0" encoding="UTF-8"?>
<svg width="60px" height="60px" viewBox="0 0 60 60" version="1.1" xmlns="http://www.w3.org/2000/svg" xmlns:xlink="http://www.w3.org/1999/xlink">
    <!-- Generator: sketchtool 51.2 (57519) - http://www.bohemiancoding.com/sketch -->
    <title>9ED69B23-EB9B-4077-9A26-5CE3198827FA</title>
    <desc>Created with sketchtool.</desc>
    <defs></defs>
    <g id="UI" stroke="none" stroke-width="1" fill="none" fill-rule="evenodd">
        <g id="Product_Landing_UI" transform="translate(-229.000000, -783.000000)" fill="#3A495B" fill-rule="nonzero">
            <g id="routing" transform="translate(229.000000, 783.000000)">
                <path d="M58.71607,34.7858755 L47.7384047,34.7858755 C47.0938132,34.7858755 46.5710895,35.3085992 46.5710895,35.9531907 C46.5710895,36.5977821 47.0938132,37.1205058 47.7384047,37.1205058 L58.71607,37.1205058 C59.3606615,37.1205058 59.8833852,36.5977821 59.8833852,35.9531907 C59.8833852,35.3085992 59.3607782,34.7858755 58.71607,34.7858755 Z" id="Shape"></path>
                <path d="M44.1328016,35.1278988 C43.9146304,34.9106615 43.6146304,34.7858755 43.3076265,34.7858755 C42.9993385,34.7858755 42.6994553,34.9106615 42.4823346,35.1278988 C42.265214,35.3451362 42.1403113,35.6461868 42.1403113,35.9531907 C42.1403113,36.2601946 42.2650973,36.5613619 42.4823346,36.7783658 C42.6994553,36.9954864 42.9994553,37.1205058 43.3076265,37.1205058 C43.6146304,37.1205058 43.9157977,36.9956031 44.1328016,36.7783658 C44.3499222,36.5613619 44.4749416,36.2601946 44.4749416,35.9531907 C44.4749416,35.6461868 44.3500389,35.3450195 44.1328016,35.1278988 Z" id="Shape"></path>
                <path d="M37.4711673,34.7858755 L28.2779767,34.7858755 C27.8772374,34.7858755 27.5046304,34.9914397 27.2907782,35.3301946 L12.9999222,57.9758755 C12.6559144,58.5211284 12.8188716,59.2420623 13.3641245,59.58607 C13.5575486,59.7080545 13.773035,59.7663035 13.9859533,59.7663035 C14.3732685,59.7663035 14.752179,59.5736965 14.9743191,59.2218677 L28.9215175,37.1205058 L37.4710506,37.1205058 C38.115642,37.1205058 38.6383658,36.5977821 38.6383658,35.9531907 C38.6383658,35.3085992 38.1158755,34.7858755 37.4711673,34.7858755 Z" id="Shape"></path>
                <path d="M18.0344358,29.9203891 L2.16478599,14.0507393 C1.70883268,13.5949027 0.969922179,13.5949027 0.51385214,14.0507393 C0.0580155642,14.5065759 0.0580155642,15.2457198 0.51385214,15.7015564 L15.723035,30.9106226 L0.298599222,55.2735409 C-0.0462256809,55.8183268 0.115797665,56.5394942 0.660466926,56.8843191 C0.854241245,57.0070039 1.07031128,57.0654864 1.28381323,57.0654864 C1.67054475,57.0654864 2.04910506,56.8733463 2.27124514,56.5225681 L18.1954086,31.3703113 C18.4873541,30.9088716 18.4205837,30.3066537 18.0344358,29.9203891 Z" id="Shape"></path>
                <path d="M14.081323,8.79875486 L5.62680934,0.344357977 C5.17085603,-0.111478599 4.43194553,-0.111478599 3.97587549,0.344357977 C3.52003891,0.800194553 3.52003891,1.53933852 3.97587549,1.99529183 L12.4305058,10.4496887 C12.6584825,10.6776654 12.9571984,10.7915953 13.2559144,10.7915953 C13.5546304,10.7915953 13.8533463,10.6776654 14.081323,10.4496887 C14.5371595,9.99385214 14.5371595,9.25470817 14.081323,8.79875486 Z" id="Shape"></path>
                <path d="M16.900856,11.6184047 C16.6838521,11.401284 16.3826848,11.2775486 16.0756809,11.2775486 C15.768677,11.2775486 15.4675097,11.401284 15.2503891,11.6184047 C15.0332685,11.8355253 14.9083658,12.1366926 14.9083658,12.4448638 C14.9083658,12.7518677 15.0331518,13.0518677 15.2503891,13.2689883 C15.4675097,13.487393 15.768677,13.612179 16.0756809,13.612179 C16.3826848,13.612179 16.6838521,13.4872763 16.900856,13.2689883 C17.119144,13.0518677 17.2429961,12.7518677 17.2429961,12.4448638 C17.2429961,12.1366926 17.119144,11.8366926 16.900856,11.6184047 Z" id="Shape"></path>
                <path d="M58.71607,28.7159533 L55.2724903,28.7159533 C54.6278988,28.7159533 54.1051751,29.2385603 54.1051751,29.8832685 C54.1051751,30.5278599 54.6278988,31.0505837 55.2724903,31.0505837 L58.71607,31.0505837 C59.3606615,31.0505837 59.8833852,30.5278599 59.8833852,29.8832685 C59.8833852,29.2385603 59.3607782,28.7159533 58.71607,28.7159533 Z" id="Shape"></path>
                <path d="M50.3332296,28.7159533 L47.5950584,28.7159533 C46.9504669,28.7159533 46.4277432,29.2385603 46.4277432,29.8832685 C46.4277432,30.5278599 46.9503502,31.0505837 47.5950584,31.0505837 L50.3332296,31.0505837 C50.977821,31.0505837 51.5005447,30.5278599 51.5005447,29.8832685 C51.5005447,29.2385603 50.977821,28.7159533 50.3332296,28.7159533 Z" id="Shape"></path>
                <path d="M58.71607,22.6460311 L48.0370039,22.6460311 L50.3133852,19.7282101 C52.0584047,17.5727626 53.0149027,14.8707782 53.0149027,12.1052918 C53.0149027,5.43058366 47.5846693,0.000350194553 40.9099611,0.000350194553 C34.2353696,0.000350194553 28.8050195,5.43058366 28.8050195,12.1052918 C28.8050195,14.8738132 29.7611673,17.5731128 31.4996498,19.7198054 C31.5096887,19.7346693 32.2698444,20.7100778 33.7801167,22.6460311 L27.9285992,22.6460311 L19.8985214,14.6159533 C19.4425681,14.1601167 18.7036576,14.1602335 18.2475875,14.6159533 C17.791751,15.0717899 17.791751,15.8109339 18.2475875,16.2668872 L26.619572,24.6387549 C26.8385603,24.8576265 27.1354086,24.9806615 27.4449805,24.9806615 L35.1366537,24.9806615 C35.2802335,24.9806615 35.4171595,24.953463 35.5441634,24.90607 L38.5180156,28.7159533 L38.0548249,28.7159533 C37.4102335,28.7159533 36.8875097,29.2385603 36.8875097,29.8832685 C36.8875097,30.5278599 37.4102335,31.0505837 38.0548249,31.0505837 L42.3350195,31.0505837 C42.9797276,31.0505837 43.5023346,30.5278599 43.5023346,29.8832685 C43.5023346,29.5251362 43.3406615,29.2050584 43.0867704,28.990856 L46.2155253,24.9805447 L58.71607,24.9805447 C59.3606615,24.9805447 59.8833852,24.4579377 59.8833852,23.8132296 C59.8833852,23.1685214 59.3606615,22.6460311 58.71607,22.6460311 Z M40.9097276,27.9857977 L33.4567704,18.4375097 C33.4316732,18.3981712 33.4038911,18.3601167 33.3737743,18.3235798 C31.9330739,16.5798444 31.1396498,14.3714008 31.1396498,12.1052918 C31.1396498,6.71801556 35.5226848,2.33498054 40.9099611,2.33498054 C46.2972374,2.33498054 50.6802724,6.71801556 50.6802724,12.1052918 C50.6802724,14.3474708 49.9014397,16.537821 48.4873541,18.2726848 C48.4788716,18.2831907 45.9529961,21.5208949 40.9097276,27.9857977 Z" id="Shape"></path>
                <path d="M31.9113619,28.7159533 L28.1312451,28.7159533 C27.4866537,28.7159533 26.96393,29.2385603 26.96393,29.8832685 C26.96393,30.5278599 27.4866537,31.0505837 28.1312451,31.0505837 L31.9113619,31.0505837 C32.5559533,31.0505837 33.078677,30.5278599 33.078677,29.8832685 C33.0785603,29.2385603 32.5559533,28.7159533 31.9113619,28.7159533 Z" id="Shape"></path>
                <path d="M5.00322957,8.30498054 L2.10945525,5.41108949 C1.65361868,4.95525292 0.914708171,4.95525292 0.458521401,5.41108949 C0.0026848249,5.86692607 0.0026848249,6.60607004 0.458521401,7.06190661 L3.35241245,9.95579767 C3.58038911,10.1837743 3.87910506,10.2977043 4.17782101,10.2977043 C4.47653696,10.2977043 4.77525292,10.1836576 5.00322957,9.95579767 C5.45906615,9.49996109 5.45906615,8.76081712 5.00322957,8.30498054 Z" id="Shape"></path>
                <path d="M11.2112451,14.5128794 L8.31735409,11.6191051 C7.86140078,11.1631518 7.12249027,11.1632685 6.66653696,11.6191051 C6.21070039,12.0749416 6.21070039,12.8140856 6.66653696,13.2699222 L9.56042802,16.1638132 C9.78840467,16.3917899 10.0871206,16.5057198 10.3858366,16.5057198 C10.6845525,16.5057198 10.9832685,16.3916732 11.2112451,16.1638132 C11.6670817,15.7078599 11.6670817,14.968716 11.2112451,14.5128794 Z" id="Shape"></path>
                <path d="M17.4190272,20.7208949 L14.5251362,17.8270039 C14.0692996,17.3710506 13.3303891,17.3711673 12.8743191,17.8270039 C12.4184825,18.2828405 12.4184825,19.0219844 12.8743191,19.477821 L15.7682101,22.3717121 C15.9961868,22.5996887 16.2949027,22.7136187 16.5936187,22.7136187 C16.8923346,22.7136187 17.1910506,22.599572 17.4190272,22.3717121 C17.8748638,21.9158755 17.8748638,21.1767315 17.4190272,20.7208949 Z" id="Shape"></path>
                <path d="M23.31607,26.617821 L20.733035,24.034786 C20.2770817,23.5789494 19.5381712,23.5789494 19.0821012,24.034786 C18.6262646,24.4906226 18.6262646,25.2297665 19.0821012,25.6856031 L21.6652529,28.2686381 C21.8932296,28.4966148 22.1919455,28.6105447 22.4906615,28.6105447 C22.7893774,28.6105447 23.0880934,28.4964981 23.31607,28.2686381 C23.7719066,27.8128016 23.7719066,27.0736576 23.31607,26.617821 Z" id="Shape"></path>
                <path d="M9.87,53.7497276 C9.32463035,53.4056031 8.60392996,53.5687938 8.25980545,54.11393 L5.82268482,57.9758755 C5.47867704,58.5211284 5.64163424,59.2420623 6.18688716,59.58607 C6.38031128,59.7081712 6.59579767,59.7663035 6.80871595,59.7663035 C7.19603113,59.7663035 7.57494163,59.5736965 7.79708171,59.2218677 L10.2342023,55.3599222 C10.5782101,54.8146693 10.4152529,54.0937354 9.87,53.7497276 Z" id="Shape"></path>
                <path d="M15.2401167,45.2396498 C14.6947471,44.8955253 13.9740467,45.0585992 13.6299222,45.6038521 L11.1554475,49.525214 C10.8114397,50.0704669 10.9745136,50.7914008 11.5196498,51.1354086 C11.7130739,51.2575097 11.9285603,51.315642 12.1414786,51.315642 C12.5287938,51.315642 12.9077043,51.123035 13.1298444,50.7712062 L15.6043191,46.8498444 C15.9483268,46.3045914 15.7852529,45.5836576 15.2401167,45.2396498 Z" id="Shape"></path>
                <path d="M19.8228794,37.9774319 C19.2775097,37.6331907 18.5565759,37.7964981 18.2126848,38.3416342 L16.4829572,41.0828405 C16.1389494,41.6280934 16.3020233,42.3490272 16.8471595,42.693035 C17.0405837,42.8151362 17.25607,42.8732685 17.4689883,42.8732685 C17.8563035,42.8732685 18.2353307,42.6806615 18.4573541,42.3288327 L20.1870817,39.5876265 C20.5310895,39.0423735 20.3680156,38.3214397 19.8228794,37.9774319 Z" id="Shape"></path>
                <path d="M23.9611284,31.4198054 C23.4157588,31.0754475 22.6950584,31.2388716 22.3509339,31.7840078 L20.6561089,34.4695331 C20.3121012,35.014786 20.4750584,35.7357198 21.0203113,36.0797276 C21.2137354,36.2018288 21.4292218,36.2599611 21.6421401,36.2599611 C22.0294553,36.2599611 22.4083658,36.0673541 22.6305058,35.7155253 L24.3253307,33.03 C24.6693385,32.4847471 24.5063813,31.7638132 23.9611284,31.4198054 Z" id="Shape"></path>
                <path d="M40.9099611,6.32673152 C37.6274708,6.32673152 34.9571206,8.99719844 34.9571206,12.2796887 C34.9571206,15.562179 37.6275875,18.2326459 40.9099611,18.2326459 C44.1923346,18.2326459 46.8629183,15.5620623 46.8629183,12.2796887 C46.8629183,8.99731518 44.1923346,6.32673152 40.9099611,6.32673152 Z M40.9099611,15.8981323 C38.914786,15.8980156 37.2916342,14.2748638 37.2916342,12.2796887 C37.2916342,10.2845136 38.914786,8.66124514 40.9099611,8.66124514 C42.9052529,8.66124514 44.5284047,10.2843969 44.5284047,12.2796887 C44.5282879,14.2749805 42.9051362,15.8981323 40.9099611,15.8981323 Z" id="Shape"></path>
            </g>
        </g>
    </g>
</svg>