<?xml version="1.0" encoding="UTF-8"?>
<svg width="60px" height="51px" viewBox="0 0 60 51" version="1.1" xmlns="http://www.w3.org/2000/svg" xmlns:xlink="http://www.w3.org/1999/xlink">
    <!-- Generator: sketchtool 51.2 (57519) - http://www.bohemiancoding.com/sketch -->
    <title>49F459A3-375F-4438-8B32-A88822DA45C2</title>
    <desc>Created with sketchtool.</desc>
    <defs></defs>
    <g id="UI" stroke="none" stroke-width="1" fill="none" fill-rule="evenodd">
        <g id="Product_Landing_UI" transform="translate(-538.000000, -786.000000)" fill="#3A495B" fill-rule="nonzero">
            <g id="CARD-Copy" transform="translate(427.000000, 742.000000)">
                <g id="templating" transform="translate(111.000000, 44.000000)">
                    <circle id="Oval" cx="6.24996094" cy="6.328125" r="1.25003906"></circle>
                    <circle id="Oval" cx="11.25" cy="6.328125" r="1.25003906"></circle>
                    <path d="M56.25,7.57816406 L54.9999609,7.57816406 L54.9999609,5.07808594 C54.9999609,2.32054688 52.7575781,0.078046875 49.9999219,0.078046875 L4.99992188,0.078046875 C2.24238281,0.0781640625 0,2.32054688 0,5.07808594 L0,45.0780469 C0,47.8355859 2.24238281,50.0780859 5.00003906,50.0780859 L50.0000391,50.0780859 C52.7575781,50.0780859 55.0000781,47.8357031 55.0000781,45.0780469 L55.0000781,32.578125 L56.25,32.578125 C58.3178906,32.578125 60,30.8960156 60,28.828125 L60,11.3281641 C60,9.26027344 58.3178906,7.57816406 56.25,7.57816406 Z M2.49996094,5.07808594 C2.49996094,3.69996094 3.62179687,2.578125 5.00003906,2.578125 L50.0000391,2.578125 C51.3781641,2.578125 52.5,3.69996094 52.5,5.07808594 L52.5,7.57804688 L36.4257422,7.57804688 C35.1989063,7.57804688 34.0197656,8.02722656 33.1041797,8.84144531 L31.7129297,10.078125 L2.49996094,10.078125 L2.49996094,5.07808594 Z M52.5,45.0781641 C52.5,46.4562891 51.3781641,47.578125 50.0000391,47.578125 L5.00003906,47.578125 C3.62191406,47.578125 2.50007813,46.4562891 2.50007813,45.0781641 L2.50007813,12.5780859 L28.9004297,12.5780859 L26.0878125,15.0780469 L6.24996094,15.0780469 C5.55902344,15.0780469 4.99992188,15.6371484 4.99992188,16.3280859 L4.99992188,23.8280859 C4.99992188,24.5190234 5.55902344,25.078125 6.24996094,25.078125 L25.7323828,25.078125 L28.2323438,27.5780859 L6.24996094,27.5780859 C5.55902344,27.5780859 4.99992188,28.1371875 4.99992188,28.828125 L4.99992188,43.828125 C4.99992188,44.5190625 5.55902344,45.0781641 6.24996094,45.0781641 L33.75,45.0781641 C34.4409375,45.0781641 35.0000391,44.5190625 35.0000391,43.828125 L35.0000391,32.5477734 C35.1015234,32.5542188 35.2008984,32.578125 35.3027344,32.578125 L37.5,32.578125 L37.5,43.828125 C37.5,44.5190625 38.0591016,45.0781641 38.7500391,45.0781641 L48.75,45.0781641 C49.4409375,45.0781641 50.0000391,44.5190625 50.0000391,43.828125 L50.0000391,32.578125 L52.5,32.578125 L52.5,45.0781641 Z M23.3183203,22.5781641 L7.5,22.5781641 L7.5,17.578125 L23.3929688,17.578125 C22.8250781,18.3024609 22.5,19.1949609 22.5,20.128125 C22.5,21.0244922 22.7949609,21.87 23.3183203,22.5781641 Z M30.7324219,30.0781641 L31.7675391,31.1132813 C31.9917188,31.3376953 32.23875,31.5362109 32.4999609,31.7126953 L32.4999609,42.5782031 L7.5,42.5782031 L7.5,30.0781641 L30.7324219,30.0781641 Z M39.9999609,42.5780859 L39.9999609,32.578125 L47.4999609,32.578125 L47.4999609,42.5780859 L39.9999609,42.5780859 Z M57.5000391,28.828125 C57.5000391,29.5177734 56.9397656,30.0781641 56.25,30.0781641 L35.3027344,30.0781641 C34.6447266,30.0781641 34.0001953,29.8108594 33.5351953,29.3457422 L25.4821875,21.2927344 C25.1709375,20.9814844 24.9999609,20.5675781 24.9999609,20.128125 C24.9999609,19.6582031 25.2014062,19.2101953 25.5516797,18.8976562 L34.7655469,10.7091797 C35.2221094,10.3026563 35.8129687,10.078125 36.4257422,10.078125 L56.25,10.078125 C56.9396484,10.078125 57.5000391,10.6383984 57.5000391,11.3281641 L57.5000391,28.828125 Z" id="Shape"></path>
                </g>
            </g>
        </g>
    </g>
</svg>