<?xml version="1.0" encoding="UTF-8"?>
<svg width="103px" height="102px" viewBox="0 0 103 102" version="1.1" xmlns="http://www.w3.org/2000/svg" xmlns:xlink="http://www.w3.org/1999/xlink">
    <!-- Generator: sketchtool 51.2 (57519) - http://www.bohemiancoding.com/sketch -->
    <title>19BD076E-C96D-4C99-BB63-C72C29793B19</title>
    <desc>Created with sketchtool.</desc>
    <defs></defs>
    <g id="UI" stroke="none" stroke-width="1" fill="none" fill-rule="evenodd">
        <g id="Product_Landing_UI" transform="translate(-88.000000, -2604.000000)" fill="#EFE1D6" fill-rule="nonzero">
            <g id="tumbleweed" transform="translate(88.000000, 2604.000000)">
                <path d="M49.210308,12.2960197 C48.3828947,12.2420079 47.6618947,12.8662559 47.6054756,13.6959094 C47.4884211,15.4130433 49.1350156,20.6981693 52.5715614,24.2601378 C53.6431228,25.3706929 54.8136686,26.2220315 56.0516764,26.8045157 C53.8382807,27.9327402 51.6377349,28.8312638 49.131,28.8312638 C49.1233704,28.8312638 49.1149376,28.8306614 49.1077096,28.8312638 C48.2772846,28.8312638 47.6034678,29.5037008 47.6018616,30.3341575 C47.6002554,31.1660197 48.273269,31.8414685 49.1046979,31.8430748 L49.1314016,31.8430748 C53.0648772,31.8430748 56.2141072,30.1524449 59.2599357,28.5174331 C61.8883431,27.1067008 64.3707836,25.773874 67.1764795,25.6409528 C68.0071053,25.6017992 68.6485965,24.8962323 68.6092437,24.065374 C68.5698908,23.2349173 67.8745906,22.5923976 67.0337251,22.6325551 C64.4436667,22.7552362 62.1756589,23.6473346 60.0291228,24.7157244 C58.1688986,24.6876142 56.4299454,23.8730197 54.8560331,22.2886063 C51.8724464,19.2850276 50.5808304,14.6855906 50.6101442,13.8983031 C50.6653587,13.0698543 50.0391267,12.3526417 49.210308,12.2960197 Z" id="Shape"></path>
                <path d="M57.0611969,58.0536614 C57.8745556,57.8801811 58.3931696,57.0798425 58.2196959,56.2666535 C58.0462222,55.4532638 57.2455127,54.9356339 56.4327563,55.1081102 C54.2251832,55.5789567 52.4830175,55.5325748 51.6222749,55.3675276 C50.6966803,52.7233583 49.4871832,50.1026811 45.8635107,48.3624567 C45.1137992,48.0024449 44.2141053,48.3182835 43.8541072,49.0680236 C43.4941092,49.8177638 43.8099357,50.7174921 44.5596472,51.0775039 C47.4759727,52.4781969 48.1550097,54.4949055 49.0950604,57.2864528 C49.9943528,59.9575276 51.1136998,63.2817638 54.6673002,66.4242874 C54.9538129,66.6774803 55.3095945,66.8019685 55.6641715,66.8019685 C56.0805887,66.8019685 56.4953996,66.6302953 56.7929552,66.2935748 C57.343694,65.6705315 57.2852671,64.7187992 56.6622476,64.1678386 C54.5323762,62.2846535 53.4732632,60.3749646 52.7231501,58.4907756 C52.8512476,58.4943898 52.9795458,58.4980039 53.1116589,58.4980039 C54.3113177,58.4976024 55.6697934,58.3504252 57.0611969,58.0536614 Z" id="Shape"></path>
                <path d="M2.36116959,29.8207441 C3.56404094,28.9904882 5.54533528,28.3989685 7.82779922,28.0921654 C5.6491384,31.4637874 3.87585185,35.1116929 2.63503314,38.8489488 C2.37301559,39.6382441 2.80027485,40.4905866 3.58974074,40.7526142 C3.74715205,40.8048189 3.90717349,40.8297165 4.06438402,40.8297165 C4.69563548,40.8297165 5.28351852,40.429748 5.49333333,39.7978701 C6.889154,35.5937835 9.00276218,31.5095669 11.6333782,27.8528268 C15.1199181,27.864874 18.7062456,28.4943425 21.053963,29.8785709 C21.2938947,30.020126 21.5573177,30.0873898 21.8173275,30.0873898 C22.332729,30.0873898 22.8350799,29.8225512 23.1159708,29.3460827 C23.5384113,28.6296732 23.299885,27.7064528 22.5835029,27.2839961 C20.2588752,25.9134213 17.1469903,25.1546457 13.9433489,24.9092835 C14.7028986,24.0220039 15.491963,23.1668504 16.3119474,22.3558701 C17.5471442,21.1340787 18.8168752,19.9038543 20.1229474,18.6927047 C20.358462,18.908752 20.6080312,19.1197795 20.873462,19.3249843 C22.3261033,20.447185 24.1335224,21.3013346 25.4781442,21.5009173 C25.5532359,21.5121614 25.6275244,21.5173819 25.7012105,21.5173819 C26.4348596,21.5173819 27.0777563,20.9800748 27.1887875,20.2325433 C27.3108616,19.4097165 26.7428558,18.6439134 25.920462,18.5216339 C25.0739747,18.3959409 23.5801735,17.6982047 22.3758967,16.6617402 C25.189423,14.2045039 28.1788324,11.9036811 31.3901033,10.0225039 C31.6762144,9.85484646 31.9633294,9.69501969 32.2504444,9.53579528 C33.9436199,10.499374 35.6357914,11.759315 36.7870624,13.2814843 C37.2715439,13.9217953 37.6279279,14.563311 37.8582222,15.2108504 C37.8662534,15.2373543 37.8748869,15.2634567 37.8843236,15.2893583 C38.2471326,16.3567441 38.268616,17.4413976 37.9503801,18.5658071 C37.7239006,19.3659449 38.1891072,20.1982087 38.989616,20.4246969 C39.1267485,20.4634488 39.2644834,20.4819213 39.4002105,20.4819213 C40.056961,20.4819213 40.6607057,20.0488228 40.8484347,19.3854213 C41.2630448,17.9194724 41.2853314,16.4505118 40.9319591,15.0235157 C41.2022086,14.6773583 41.6214366,14.1800079 41.9810331,13.7535354 C43.9002865,11.477811 46.7168246,8.13530315 47.6243489,4.94659843 C48.4314834,4.89479528 49.2462476,4.86849213 50.0694444,4.86849213 C55.8466803,4.86849213 61.1563002,6.26195669 66.2432554,8.41720866 C64.121616,9.77091732 62.2774542,11.484437 60.7535361,12.9011929 L60.3754678,13.2521693 C59.7656998,13.8173858 59.7293587,14.7705236 60.2947544,15.3805157 C60.5917076,15.7005709 60.9948733,15.8626063 61.3996452,15.8626063 C61.7658674,15.8626063 62.1330936,15.7298858 62.4230195,15.4612323 L62.804501,15.1068425 C64.8090858,13.2431339 67.090345,11.1228189 69.6273977,9.96969685 C73.3201384,11.7908386 76.920922,13.9515118 80.5275283,16.1989252 C82.0912008,17.1731457 83.5510702,18.3015709 84.9069357,19.5755669 C83.6297758,20.6325118 82.3801228,21.8587205 81.1939162,23.2294961 C79.3541715,21.1186181 75.9692261,18.5407087 72.7627739,17.5379764 C71.9686901,17.2900039 71.1244113,17.7323386 70.8760468,18.5258504 C70.627883,19.319563 71.0702008,20.1642756 71.863883,20.4124488 C75.1904016,21.4527283 78.2502846,24.3119409 79.2909259,25.6333228 C75.8019766,30.463063 74.0092144,35.6114528 74.3370877,39.9791811 C74.3963177,40.7700827 75.0564815,41.3724449 75.8371131,41.3724449 C75.8748596,41.3724449 75.9130078,41.3710394 75.9513567,41.3682283 C76.780577,41.3059843 77.4025926,40.5833504 77.3401501,39.7538976 C77.0395828,35.7475866 79.0724776,30.6166654 82.778269,26.0290748 C84.1044191,24.3872362 85.5413996,22.9431732 87.001269,21.7565197 C88.9534503,24.0081496 90.6406023,26.618185 92.046462,29.5735748 C92.4038499,30.3247205 93.3023392,30.6435709 94.0532554,30.2863701 C94.8041715,29.9291693 95.1232105,29.0304449 94.7660234,28.2795 C93.287883,25.1727165 91.5168051,22.4126929 89.4708596,20.0100709 C91.1029981,19.0272165 92.701807,18.4087913 94.1432047,18.2421378 C94.9692125,18.146563 95.5615127,17.3996339 95.4661423,16.5731929 C95.3707719,15.7469528 94.6246745,15.1546299 93.797462,15.2502047 C91.7617563,15.4855276 89.5616121,16.3645748 87.3725107,17.7680787 C85.761655,16.2011339 84.0112573,14.8213228 82.1201131,13.6429016 C79.6742144,12.1187244 77.2289181,10.6332992 74.752501,9.25870866 C75.1482378,9.33701575 75.5479903,9.44503937 75.9531637,9.59362205 C76.7333938,9.88034646 77.5991559,9.47977559 77.8856686,8.69911417 C78.1723821,7.91845276 77.7720273,7.05325984 76.9911949,6.76653543 C74.3898928,5.81118898 71.9729064,5.95535433 69.7715575,6.69023622 C63.6646413,3.80933858 57.2491267,1.8566811 50.0694444,1.8566811 C49.301462,1.8566811 48.5463294,1.87816535 47.8032437,1.9189252 C47.7323684,1.59023622 47.6309747,1.26757087 47.4864133,0.954141732 C47.138462,0.199181102 46.2441891,-0.130712598 45.4884542,0.217251969 C44.7359318,0.564212598 44.4062515,1.4535 44.7483801,2.20705512 C40.1479142,2.82226772 36.0291189,4.21733858 32.2610858,6.12622441 C29.8005302,4.93294488 27.5174639,4.31311417 26.4617641,4.31311417 C25.6301345,4.31311417 24.9559162,4.98715748 24.9559162,5.81901969 C24.9559162,6.65088189 25.6299337,7.3249252 26.4617641,7.3249252 C26.8641267,7.3249252 27.7857057,7.55221654 28.9438031,7.98591732 C25.9829045,9.80625591 23.2356355,11.9237598 20.627306,14.1870354 C20.5771111,14.0101417 20.5403684,13.8308386 20.5220975,13.6485236 C20.4391754,12.820878 19.7013099,12.2179134 18.8734951,12.3002362 C18.0460819,12.3831614 17.4423372,13.1212559 17.5252593,13.9489016 C17.6067758,14.7632953 17.8537349,15.5570079 18.2518811,16.317189 C16.8689103,17.5952008 15.5202729,18.9027283 14.193922,20.2146732 C12.7434893,21.6495 11.3797934,23.2076102 10.1126725,24.8550709 C6.27476803,25.0379882 2.70791618,25.9218543 0.650727096,27.3418228 C-0.0337309942,27.8142756 -0.20579922,28.7519528 0.266635478,29.4366378 C0.739070175,30.1213228 1.67711306,30.2931969 2.36116959,29.8207441 Z M44.2847797,5.3198622 C43.1768772,7.66285039 40.8914016,10.3736811 39.6788928,11.8115197 C39.6335166,11.8653307 39.5909513,11.9161299 39.5475828,11.9673307 C39.43354,11.7984685 39.3146784,11.6306102 39.1889903,11.4641575 C38.1648129,10.1100472 36.8360526,8.93905512 35.4157368,7.9576063 C38.297729,6.6793937 41.2415614,5.80275591 44.2847797,5.3198622 Z" id="Shape"></path>
                <path d="M82.3514113,54.2324764 C82.4234912,54.2427165 82.4953704,54.2477362 82.5662456,54.2477362 C83.3035088,54.2477362 83.9476101,53.705811 84.0550273,52.9544646 C84.2594211,51.5248583 83.7440195,50.0743701 82.5652417,48.7600157 C81.8277778,47.9377913 80.3528499,46.7332677 79.2702456,46.7332677 C79.254384,46.7332677 79.2385224,46.7336693 79.2226608,46.7340709 C78.3914327,46.7619803 77.7403041,47.458311 77.7680117,48.2895709 C77.792306,49.0150157 78.3257778,49.6035236 79.0138499,49.7229921 C79.5481248,49.9737756 81.2501345,51.2931496 81.0736491,52.5285945 C80.9559922,53.3520236 81.5280136,54.114815 82.3514113,54.2324764 Z" id="Shape"></path>
                <path d="M25.2653177,49.310374 C23.2031092,49.9310079 19.5527329,53.5128543 18.9951676,54.9067205 C18.6861676,55.6789488 19.0616257,56.5553858 19.8338246,56.8641969 C20.0173372,56.937685 20.2066725,56.9724213 20.3927953,56.9724213 C20.9830877,56.9724213 21.5426608,56.6226496 21.7829942,56.046189 C22.2062378,55.2267756 25.0589162,52.517752 26.1332885,52.1942835 C26.9297817,51.9547441 27.3809337,51.1148504 27.1412027,50.3183268 C26.901271,49.5220039 26.0610078,49.0708346 25.2653177,49.310374 Z" id="Shape"></path>
                <path d="M33.3055419,74.2642323 C35.4191501,76.8218622 37.8148538,79.7206299 42.2135361,81.8025945 C42.4215439,81.9009803 42.6407953,81.9477638 42.8566335,81.9477638 C43.4206238,81.9477638 43.9615244,81.629315 44.2187232,81.0855827 C44.5743041,80.3340354 44.2534581,79.4361142 43.5017388,79.0803189 C40.9919922,77.8926614 39.2361735,76.3905709 37.7526121,74.8069606 C38.0752651,74.7254409 38.4079571,74.6385 38.7526959,74.5481457 C41.9854503,73.7012244 46.0084737,72.6468898 47.7717212,74.7702165 C48.0694776,75.1288228 48.4985439,75.3139488 48.9308226,75.3139488 C49.2699396,75.3139488 49.6110643,75.2001024 49.8921559,74.9665866 C50.5320409,74.4351024 50.6197817,73.4857795 50.0885185,72.8458701 C47.1001131,69.2475591 41.8344639,70.6269685 37.9893314,71.6347205 C37.08,71.8728543 36.2100214,72.1001457 35.5221501,72.2192126 C32.6275088,68.7178819 29.5818811,65.136437 21.9245439,64.5969213 C21.0953236,64.5384921 20.3749259,65.1635433 20.316499,65.9931969 C20.2580721,66.8228504 20.8830994,67.542874 21.7127212,67.6013031 C28.1752183,68.0562874 30.4392105,70.7960315 33.3055419,74.2642323 Z" id="Shape"></path>
                <path d="M61.4965886,47.3844327 C62.9758054,49.1894805 64.6524478,51.2352864 67.7308824,52.7046334 C67.8764574,52.7740692 68.0299014,52.8070866 68.1809566,52.8070866 C68.5756673,52.8070866 68.9542187,52.5823413 69.1342203,52.1986021 C69.3830749,51.6681975 69.1585296,51.0344894 68.632436,50.7833868 C66.8759802,49.9451973 65.6471638,48.8850966 64.6088877,47.7674634 C64.8346976,47.7099308 65.0675334,47.6485722 65.3088002,47.5848046 C67.5712557,46.9870898 70.386784,46.2429929 71.6207995,47.7415312 C71.8291855,47.9946177 72.1294691,48.1252704 72.4320011,48.1252704 C72.6693334,48.1252704 72.9080708,48.0449232 73.1047939,47.8801194 C73.5526198,47.5050243 73.6140255,46.8350395 73.242219,46.3834233 C71.150772,43.8439146 67.4655873,44.8174331 64.7745566,45.5286542 C64.1381575,45.6967172 63.5292997,45.8571282 63.0478903,45.9411597 C61.0220645,43.4700948 58.8905703,40.9424894 53.5315536,40.561726 C52.9512206,40.5204897 52.4470476,40.9616196 52.4061573,41.5471478 C52.365267,42.132676 52.8026947,42.6408328 53.3833087,42.6820691 C57.906112,43.0031744 59.4905756,44.9367493 61.4965886,47.3844327 Z" id="Shape"></path>
                <path d="M102.590811,58.2261378 C102.16837,57.5099291 101.245185,57.2715945 100.528602,57.6938504 C100.272006,57.8452441 99.8009766,58.1321693 99.1970312,58.5098504 C99.4682846,56.2238858 99.6094327,53.8539921 99.6094327,51.3981614 C99.6094327,49.2531496 99.5032203,47.142874 99.2917992,45.0753661 C100.46616,42.9548504 101.196797,40.6859528 100.851657,38.1218976 C100.740626,37.2976654 99.9816784,36.7187953 99.1584815,36.8302323 C98.6563314,36.8976969 98.24654,37.2061063 98.0272885,37.6227402 C97.8230955,36.7742126 97.6012339,35.9345197 97.3576881,35.1066732 C97.1229766,34.3087441 96.2859259,33.851752 95.4882281,34.086874 C94.6903294,34.3215945 94.2337563,35.1584764 94.4684678,35.9566063 C95.2635556,38.6600079 95.8377856,41.4868937 96.1881462,44.4119646 C95.4816023,45.5530394 94.6262807,46.6925079 93.7526881,47.8560709 C93.7173509,47.9032559 93.6818129,47.9506417 93.6462749,47.9978268 C93.4151774,47.7006614 93.1561715,47.376189 92.8658441,47.0129646 C90.5104971,44.0648031 86.5681871,39.1304528 88.0172144,35.3008346 C88.3115575,34.5229843 87.9196355,33.6537756 87.1418148,33.3594213 C86.3639942,33.0644646 85.4946179,33.4568031 85.2004756,34.2348543 C83.1440897,39.6695669 87.7570039,45.4432087 90.5131072,48.892937 C90.9574327,49.4491181 91.4768499,50.0994685 91.793078,50.5496339 C90.5030682,52.4360315 89.3847251,54.436878 88.8580799,56.7041693 C88.6697485,57.5143465 89.1741072,58.3235197 89.9840526,58.5118583 C90.0986979,58.538563 90.2133431,58.5512126 90.3261813,58.5512126 C91.0106394,58.5512126 91.6300448,58.0811693 91.7916725,57.3856417 C92.4311559,54.6324449 94.3275205,52.1067402 96.1612417,49.6641614 C96.2921501,49.4896772 96.42346,49.3147913 96.5543684,49.1395039 C96.582076,49.887437 96.5975361,50.6399882 96.5975361,51.3977598 C96.5975361,54.6575433 96.3421442,57.754689 95.8424035,60.6821693 C93.2172086,62.4434764 90.3771793,64.5117874 89.6535692,65.630374 C89.2018148,66.3287126 89.4007875,67.262374 90.0990994,67.7141457 C90.3522827,67.8777874 90.6359844,67.9560945 90.9164737,67.9560945 C91.4095887,67.9560945 91.8924639,67.7141457 92.1803821,67.269 C92.4142904,66.9278622 93.4485068,66.0815433 94.8818733,65.0302205 C94.1124854,67.8384331 93.0899142,70.4635276 91.8073333,72.8852244 C91.1654405,74.0971772 90.4572904,75.2591339 89.6866979,76.3720984 C87.2193158,77.1093898 84.9001092,77.1212362 82.690729,76.4158701 C79.335499,75.3446693 76.503501,72.7515 74.102577,70.0236024 C77.2040214,69.3019724 80.5315439,68.8666654 83.7588772,68.5433976 C84.5864912,68.4604724 85.1900351,67.722378 85.1073138,66.8949331 C85.024191,66.0672874 84.2845185,65.4631181 83.4589123,65.5464449 C74.1545789,66.4785 64.0302612,68.3482323 59.4864152,75.1495039 C59.0244211,75.840815 59.2105439,76.7762835 59.9020292,77.2380945 C60.1588265,77.4097677 60.4495556,77.4920906 60.7370721,77.4920906 C61.2231598,77.4920906 61.7002125,77.2569685 61.99054,76.8224646 C63.8820858,73.9911614 67.0963684,72.1525512 70.8965263,70.9110827 C73.7632593,74.3367165 77.2761014,77.848689 81.7743704,79.2849213 C83.178423,79.7332795 84.6041598,79.9583622 86.0576043,79.9583622 C86.3174133,79.9583622 86.5780253,79.9501299 86.8396413,79.9356732 C84.0357524,83.0037047 80.6447836,85.5938622 76.6862105,87.6698031 C75.7740682,88.1482795 74.8629298,88.6424173 73.9313119,89.1528189 C71.4195575,88.4950394 68.6600409,87.113622 66.5165166,85.8562913 C67.7480994,85.4743937 69.0222476,85.0071614 70.3321345,84.4168465 C71.0902788,84.0751063 71.4279903,83.1832087 71.0862632,82.4250354 C70.7443353,81.6668622 69.852271,81.3297402 69.0945283,81.670878 C64.9426043,83.5422165 61.0496862,84.1116496 57.9213372,84.5692441 C55.1399357,84.9758386 52.737807,85.3270157 50.9578947,86.4546378 C50.2551657,86.8995827 50.0463548,87.8300315 50.4914834,88.5325866 C50.7781969,88.9853622 51.2660916,89.2329331 51.7650292,89.2329331 C52.040499,89.2329331 52.3195828,89.157437 52.5693528,88.9990157 C53.8077622,88.2147402 55.8153587,87.921189 58.35723,87.5493307 C59.6217407,87.3644055 61.0049123,87.1614094 62.4832534,86.8686614 C63.4000136,87.4880906 65.3710682,88.7606811 67.7497057,89.9477362 C68.6496004,90.3966969 69.5151618,90.786626 70.3469922,91.1197323 C63.8768655,94.6413425 57.1870858,97.9278307 50.0690429,97.9278307 C43.9735712,97.9278307 38.4543372,97.0405512 33.5637446,95.2838622 C33.8012671,93.9934016 33.8920195,92.6864764 33.8319864,91.370315 C34.4750838,91.2709252 35.1926706,91.0978465 36.0094425,90.8998701 C38.2613879,90.3543307 41.0636706,89.6750669 43.3543665,90.4693819 C44.1408207,90.7418504 44.9979493,90.3258189 45.2704074,89.539937 C45.5428655,88.7542559 45.1268499,87.8962913 44.3409981,87.6238228 C41.2148577,86.5395709 37.7959805,87.3680197 35.3000877,87.9725906 C34.7134094,88.114748 33.993614,88.2892323 33.4408674,88.3827992 C33.1593743,87.0718583 32.7335205,85.7579055 32.159692,84.4485709 C30.337616,80.2916693 27.4202865,77.1664134 26.2927076,76.3042323 C25.6319415,75.799252 24.6868713,75.9251457 24.1817096,76.5857362 C23.6765478,77.2463268 23.8026374,78.1914331 24.4632027,78.696815 C24.9300156,79.053815 27.6664425,81.6999921 29.4011793,85.6575118 C30.0360448,87.1061929 30.4604932,88.5422244 30.6781384,89.9625945 C30.6841618,90.0447165 30.6954055,90.1262362 30.7144795,90.2055472 C30.8951813,91.5283346 30.8949805,92.8370669 30.7130741,94.1289331 C28.7492476,93.2382402 26.8992632,92.1935433 25.169345,90.9926339 C24.4864932,90.5185748 23.5480487,90.6878386 23.0736062,91.3711181 C22.5993645,92.0541969 22.7686218,92.9926772 23.452076,93.466937 C25.4789474,94.8738543 27.6521871,96.0835984 29.9649688,97.0951654 C29.6483392,97.9611614 29.2473821,98.8183228 28.760692,99.6656457 C28.3464834,100.386874 28.5954503,101.307283 29.3166511,101.721508 C29.5531696,101.85724 29.81077,101.921693 30.0653587,101.921693 C30.5869844,101.921693 31.094154,101.650228 31.3726355,101.165528 C31.9310039,100.193315 32.3946043,99.2024291 32.7644405,98.1970866 C37.9252827,100.018831 43.7109513,100.93924 50.0688421,100.93924 C58.7630058,100.93924 66.8461969,96.4893898 73.977692,92.5631929 C74.1188402,92.4854882 74.2557719,92.4101929 74.3955146,92.3334921 C75.1779532,92.476252 75.9180273,92.5501417 76.611922,92.5501417 C77.3489844,92.5501417 78.0358519,92.4694252 78.670115,92.3075906 C79.4760448,92.102185 79.9629357,91.2821693 79.7573372,90.4764094 C79.6760214,90.1573583 79.4975283,89.8897087 79.262616,89.6939409 C84.2515906,86.8829173 88.3677758,83.2767756 91.5595712,78.9299291 C93.8062963,78.1141299 96.1287154,76.8138307 98.547308,75.0159803 C99.2146998,74.5196339 99.3536394,73.5763346 98.8575127,72.9089173 C98.3609844,72.2415 97.417922,72.1025551 96.7505302,72.5987008 C96.0122632,73.1474528 95.2874483,73.6419921 94.5744795,74.0861339 C96.4071969,70.5735591 97.7443899,66.6899291 98.577425,62.468374 C99.729499,61.7091969 100.923737,60.9566457 102.057942,60.2878228 C102.774926,59.8657677 103.013051,58.942748 102.590811,58.2261378 Z" id="Shape"></path>
                <path d="M15.1835653,79.9989213 C15.9071754,77.8569213 16.8807563,76.0369843 17.9828363,74.8178031 C18.5404016,74.2007835 18.4922144,73.2486496 17.8754191,72.6906614 C17.258423,72.1332756 16.3063255,72.1812638 15.7483587,72.7980827 C14.8233665,73.8214961 14.0274756,75.0906732 13.3640994,76.4755039 C12.504963,74.7826654 11.563306,73.0755709 10.6451404,71.4136535 C8.16731774,66.9276614 5.63126901,62.3332441 4.36575439,57.4874409 C4.83738596,55.8755197 5.41804094,54.4900866 6.09306238,53.2775315 C6.13582846,53.3211024 6.17518129,53.3614606 6.21995517,53.4068386 C8.39540351,55.6219252 12.9221832,60.231 12.9221832,63.7092402 C12.9221832,64.5411024 13.5962008,65.2151457 14.4280312,65.2151457 C15.2598616,65.2151457 15.9338791,64.5411024 15.9338791,63.7092402 C15.9338791,58.9993701 11.0123665,53.9883189 8.36849903,51.2963622 C8.18759649,51.1120394 7.99846199,50.9192835 7.82559064,50.7407835 C10.0423996,48.063685 12.8701813,46.3455472 15.9929084,44.4491102 C16.5434464,44.1145984 17.0996062,43.776874 17.6593801,43.4297126 C18.3661248,42.9911929 18.5835692,42.0629528 18.1450663,41.3561811 C17.7065634,40.6496102 16.7785595,40.4321575 16.071614,40.8704764 C15.5202729,41.2124173 14.9721442,41.5453228 14.4296374,41.874815 C10.8507388,44.0481378 7.37202924,46.161626 4.72233918,49.8436654 C4.71069396,49.859126 4.69804483,49.8733819 4.68680117,49.8894449 C4.67977388,49.8994843 4.67515595,49.9095236 4.66832943,49.9197638 C4.27480117,50.4721299 3.89974464,51.0594331 3.54576998,51.6874961 C3.54436452,51.5909173 3.54135283,51.4947402 3.54135283,51.3981614 C3.54135283,49.7500984 3.66764327,48.0588661 3.91661014,46.3718504 C4.03788109,45.5490236 3.4692729,44.7838228 2.64667836,44.6621457 C1.82709552,44.5412717 1.05851072,45.1092992 0.937038986,45.932126 C0.666588694,47.764311 0.52965692,49.6033228 0.52965692,51.3981614 C0.52965692,53.4965906 0.797898635,55.5213307 1.25748343,57.4884449 C0.575434698,60.0956693 0.134723197,63.1859882 0.00100389864,66.9057756 C-0.0289122807,67.7370354 0.620610136,68.4347717 1.45183821,68.4648898 C1.47030994,68.4654921 1.48878168,68.4658937 1.50685185,68.4658937 C2.3135848,68.4658937 2.98157895,67.8267874 3.01069201,67.0142008 C3.05586745,65.7576732 3.1365809,64.584874 3.24901754,63.4845591 C4.60950097,66.7134213 6.32195127,69.8157874 8.00890253,72.8699646 C9.1828616,74.9955 10.291768,77.0029724 11.2655497,79.0210866 C11.4779747,79.4610118 11.6978285,79.8949134 11.9239064,80.3235945 C10.8083743,84.2381457 10.6411248,88.1679567 11.514115,89.7682323 C11.7873762,90.2695984 12.3045848,90.5537126 12.8380565,90.5537126 C13.0816023,90.5537126 13.3285614,90.4944803 13.5574503,90.3695906 C14.2874854,89.9714291 14.5569318,89.0572441 14.1585848,88.3269803 C13.966037,87.9559252 13.833924,86.4114685 14.1887018,84.092374 C15.3154776,85.7480669 16.5562963,87.2935276 17.9059376,88.7136969 C18.2018869,89.0253189 18.5994308,89.1823346 18.9977778,89.1823346 C19.3702242,89.1823346 19.7434737,89.0447953 20.0348051,88.7681102 C20.6377466,88.1952638 20.6620409,87.2419252 20.0892164,86.6391614 C18.2237719,84.6756614 16.5813938,82.4483268 15.1835653,79.9989213 Z" id="Shape"></path>
                <path d="M10.2182827,35.8957677 C9.61875439,36.4718268 9.59947953,37.4251654 10.1757173,38.0249173 C10.4714659,38.3325236 10.8661988,38.4875315 11.2617349,38.4875315 C11.6369922,38.4875315 12.0128519,38.348185 12.3047856,38.0674843 C13.182193,37.2247795 14.9602982,36.8487047 16.006963,37.0384488 C16.8235341,37.185626 17.6089844,36.6437008 17.7573606,35.8252913 C17.9057368,35.0070827 17.3626277,34.2232087 16.5442495,34.0748268 C14.7378343,33.7473425 11.9062378,34.2738071 10.2182827,35.8957677 Z" id="Shape"></path>
                <path d="M38.3192125,64.8298346 C38.6145595,65.1338268 39.006883,65.2864252 39.3996082,65.2864252 C39.7776764,65.2864252 40.1561462,65.1450709 40.4486823,64.8607559 C41.0451988,64.2812835 41.0590526,63.3279449 40.4796023,62.7314055 C38.9805809,61.1881535 35.7389922,53.4174803 37.616885,48.8076024 C38.7522943,46.0202717 39.2022417,41.0680512 38.7908441,35.8837205 C38.5802261,33.2307165 37.8048148,26.742874 35.1573333,23.8011378 C34.6009727,23.1827126 33.6486745,23.1329173 33.0306745,23.6892992 C32.4126745,24.2456811 32.3624795,25.197815 32.9188402,25.8160394 C34.3066296,27.3582874 35.4063002,31.3071732 35.788384,36.1218543 C35.9879591,38.6375197 35.9704912,41.1122244 35.7632865,43.2269173 C32.9268713,38.3566181 28.6496608,36.5127874 26.1019669,35.4160866 C25.508462,35.1608858 24.9958713,34.9400197 24.6437037,34.7444528 C23.916078,34.3398661 22.9997193,34.6024961 22.596152,35.3293465 C22.1921832,36.0563976 22.454,36.9733937 23.1810234,37.3769764 C23.6659064,37.6464331 24.2431481,37.8948071 24.9113431,38.1825354 C27.9945166,39.5095394 32.6176706,41.5031575 34.6371131,48.1859646 C32.6140565,54.1178268 36.1277018,62.5735866 38.3192125,64.8298346 Z" id="Shape"></path>
            </g>
        </g>
    </g>
</svg>